<svg xmlns="http://www.w3.org/2000/svg" width="51" height="46" fill="none" viewBox="0 0 51 46"><g clip-path="url(#clip0)"><path fill="#ED7C30" d="M9.5625 43.5784H0V18.6714H1.26267C1.26267 18.6714 6.375 18.6714 8.075 21.8109C9.91355 25.2062 9.5625 30.8109 9.5625 30.8109V43.5784Z"/><path fill="#ED7C30" d="M13.1748 38.1367L20.8248 45.2529H37.9104C37.9104 45.2529 41.4373 45.0436 43.5623 40.2297C45.6873 35.4157 50.9998 23.2762 50.9998 23.2762V18.6715C50.9998 18.6715 50.7873 14.9041 45.0498 14.9041C39.3123 14.9041 32.7898 14.9041 32.7898 14.9041C32.7898 14.9041 36.3373 9.04363 36.1248 5.69479C35.9123 2.34595 33.7873 0.880837 31.0248 0.25293C31.0248 0.25293 17.2123 17.4157 14.0248 19.5087L13.1748 20.378V38.1367Z"/></g><defs><clipPath id="clip0"><rect width="51" height="45" fill="#fff" transform="translate(0 0.25293)"/></clipPath></defs></svg>