<svg xmlns="http://www.w3.org/2000/svg" width="51" height="46" fill="none" viewBox="0 0 51 46"><g clip-path="url(#clip0)"><path fill="#7BBBBF" d="M9.5625 43.9075H0V19.0005H1.26267C1.26267 19.0005 6.375 19.0005 8.075 22.14C9.91355 25.5353 9.5625 31.14 9.5625 31.14V43.9075Z"/><path fill="#7BBBBF" d="M13.1748 38.4658L20.8248 45.582H37.9104C37.9104 45.582 41.4373 45.3727 43.5623 40.5588C45.6873 35.7448 50.9998 23.6053 50.9998 23.6053V19.0006C50.9998 19.0006 50.7873 15.2332 45.0498 15.2332C39.3123 15.2332 32.7898 15.2332 32.7898 15.2332C32.7898 15.2332 36.3373 9.37273 36.1248 6.02389C35.9123 2.67505 33.7873 1.20994 31.0248 0.582031C31.0248 0.582031 17.2123 17.7448 14.0248 19.8378L13.1748 20.7071V38.4658Z"/></g><defs><clipPath id="clip0"><rect width="51" height="45" fill="#fff" transform="translate(0 0.582031)"/></clipPath></defs></svg>