<svg xmlns="http://www.w3.org/2000/svg" xmlns:xlink="http://www.w3.org/1999/xlink" viewBox="0 0 63.42 40.52"><defs><style>.cls-1{fill:#7bbbbf}.cls-2{clip-path:url(#clip-path)}.cls-3{fill:#bad8dd}</style><clipPath id="clip-path"><polygon points="61.71 39.35 1.71 39.35 1.71 2.99 1.71 1.61 61.71 1.61 61.71 39.35" class="cls-1"/></clipPath></defs><title>Asset 38</title><g id="Layer_2" data-name="Layer 2"><g id="Layer_1-2" data-name="Layer 1"><polygon points="61.71 39.35 1.71 39.35 1.71 2.99 1.71 1.61 61.71 1.61 61.71 39.35" class="cls-1"/><g class="cls-2"><polygon points="61.71 39.35 1.71 39.35 1.71 2.99 1.71 1.61 61.71 1.61 61.71 39.35" class="cls-1"/><polyline points="1.71 1.61 31.97 26.12 61.71 1.61" class="cls-1"/><polygon points="31.98 28.79 .41 3.22 3.01 0 31.96 23.44 60.39 .01 63.03 3.21 31.98 28.79" class="cls-3"/><rect width="29.43" height="4.14" x="-4.7" y="25.13" class="cls-3" transform="translate(-18.1 20.12) rotate(-55.66)"/><rect width="4.14" height="29.24" x="51.39" y="12.66" class="cls-3" transform="translate(-6.07 34.92) rotate(-34.34)"/></g></g></g></svg>