<svg width="18" height="18" viewBox="0 0 18 18" fill="none" xmlns="http://www.w3.org/2000/svg">
	<path
		d="M16.8763 6.89151C16.8775 7.42718 16.7725 7.95778 16.5673 8.4526C16.3621 8.94743 16.0609 9.39666 15.681 9.77432L9.40205 16.146C9.34972 16.1992 9.28733 16.2414 9.21852 16.2702C9.14972 16.299 9.07587 16.3138 9.00127 16.3138C8.92668 16.3138 8.85283 16.299 8.78403 16.2702C8.71522 16.2414 8.65283 16.1992 8.60049 16.146L2.32159 9.77432C1.55608 9.00975 1.12566 7.9724 1.125 6.89048C1.12434 5.80856 1.5535 4.77068 2.31807 4.00518C3.08264 3.23968 4.11999 2.80925 5.20191 2.80859C6.28384 2.80794 7.32171 3.2371 8.08721 4.00166L9.00127 4.85596L9.92166 3.99885C10.4929 3.43044 11.2198 3.04401 12.0105 2.88836C12.8012 2.73271 13.6202 2.8148 14.3643 3.12429C15.1084 3.43377 15.7441 3.95677 16.1912 4.62725C16.6382 5.29773 16.8766 6.08564 16.8763 6.89151Z"
		fill="#ED7C30"
	/>
</svg>
