<svg xmlns="http://www.w3.org/2000/svg" viewBox="0 0 70 70"><path fill="currentColor" d="M34.99999958276737 6.5625C29.375593276621672 6.5625 23.87749420226139 8.230330353805977 19.200971305378022 11.355082898332287C14.52444840849466 14.479835442858597 10.879543183599733 18.921165158670362 8.72717615760976 24.11743876005127C6.574809131619783 29.31371236143218 6.011651772220756 35.031546934844116 7.10891902161023 40.54788167740041C8.206186270999705 46.06421641995671 10.91459527597606 51.13129319368091 14.89165108585105 55.1083490035559C18.86870689572604 59.08540481343089 23.935784712531503 61.7938114714744 29.452119455087797 62.891078720863874C34.96845419764409 63.98834597025335 40.68628459873098 63.42518861242532 45.882558200111886 61.27282158643535C51.078831801492796 59.120454560445374 55.52016360346709 55.475548551668496 58.6449161479934 50.79902565478513C61.76966869251971 46.12250275790177 63.43749904632568 40.62440576970401 63.437499046325684 35C63.42953704151036 27.460349403987912 60.4308944911683 20.231784771317098 55.09955386154781 14.900444141696611C49.76821323192733 9.569103512076123 42.53964964233777 6.570462004815326 34.99999958276737 6.5625ZM43.11015668113634 36.547657222163204L32.17265688746007 47.48515701583948C31.969415779117655 47.68839812418189 31.72813287775157 47.84961549307386 31.462585575552646 47.95960878720869C31.19703827335372 48.06960208134351 30.91242598816141 48.126217534886074 30.62499966529686 48.126217534886074C30.337573342432307 48.126217534886074 30.052961057239998 48.06960208134351 29.787413755041073 47.95960878720869C29.521866452842148 47.84961549307386 29.280583551476064 47.68839812418189 29.077342443133653 47.48515701583948C28.874101334791242 47.28191590749706 28.712881879736736 47.04063300613098 28.602888585601914 46.775085703932056C28.492895291467093 46.50953840173313 28.4362834738079 46.224925580099146 28.436283473807906 45.93749925723459C28.4362834738079 45.65007293437004 28.492895291467093 45.365460649177734 28.602888585601914 45.09991334697881C28.712881879736736 44.834366044779884 28.874101334791242 44.59308314341379 29.077342443133653 44.38984203507138L38.46992205988318 35L29.077342443133653 25.610156892045246C28.666878491897945 25.199692940809538 28.436283473807907 24.64298332462169 28.436283473807906 24.06249966988204C28.436283473807907 23.482016015142392 28.666878491897945 22.925306398954543 29.077342443133653 22.514842447718834C29.487806394369362 22.104378496483125 30.04451601055721 21.87378347839309 30.62499966529686 21.873783478393086C31.205483320036507 21.87378347839309 31.762192936224356 22.104378496483125 32.17265688746007 22.514842447718834L43.11015668113634 33.45234224139511C43.31354266368742 33.655502087187806 43.47489123264462 33.896759302677765 43.58497561711045 34.16231758982625C43.69506000157627 34.42787587697474 43.751718415631286 34.71252809262168 43.751718415631286 35C43.751718415631286 35.28747083449495 43.69506000157627 35.572123050141894 43.58497561711045 35.83768133729038C43.47489123264462 36.10323962443887 43.31354266368742 36.34449683992882 43.11015668113634 36.547657222163204Z"/></svg>