<svg width="18" height="18" viewBox="0 0 18 18" fill="none" xmlns="http://www.w3.org/2000/svg">
  <path
    d="M17.1083 6.39188L8.08014 15.42C7.86919 15.6308 7.58315 15.7493 7.28491 15.7493C6.98667 15.7493 6.70063 15.6308 6.48967 15.42L1.45389 10.3575C1.24329 10.1466 1.125 9.86069 1.125 9.56262C1.125 9.26456 1.24329 8.97867 1.45389 8.76774L2.86014 7.36149C3.07098 7.15153 3.35642 7.03365 3.65397 7.03365C3.95152 7.03365 4.23696 7.15153 4.4478 7.36149L7.31303 10.1402L14.1165 3.42048C14.3273 3.2103 14.6129 3.09229 14.9107 3.09229C15.2084 3.09229 15.494 3.2103 15.7048 3.42048L17.1076 4.79438C17.2131 4.89892 17.2968 5.02331 17.354 5.16038C17.4112 5.29744 17.4406 5.44447 17.4407 5.59299C17.4408 5.7415 17.4114 5.88856 17.3544 6.02567C17.2973 6.16279 17.2137 6.28725 17.1083 6.39188Z"
    fill="currentColor"
  />
</svg>
