<svg xmlns="http://www.w3.org/2000/svg" width="18" height="18" fill="none" viewBox="0 0 18 18"><path fill="currentColor" d="M14.6247 6.74996C14.6247 6.58308 14.6742 6.41995 14.7669 6.2812C14.8596 6.14244 14.9914 6.0343 15.1456 5.97043C15.2997 5.90657 15.4694 5.88986 15.6331 5.92242C15.7967 5.95498 15.9471 6.03534 16.0651 6.15334C16.1831 6.27134 16.2634 6.42168 16.296 6.58535C16.3286 6.74902 16.3118 6.91867 16.248 7.07285C16.1841 7.22702 16.076 7.3588 15.9372 7.45151C15.7985 7.54422 15.6353 7.59371 15.4685 7.59371C15.2447 7.59371 15.0301 7.50481 14.8718 7.34658C14.7136 7.18835 14.6247 6.97373 14.6247 6.74996ZM13.781 5.06246C13.9478 5.06246 14.111 5.01297 14.2497 4.92026C14.3885 4.82755 14.4966 4.69577 14.5605 4.5416C14.6243 4.38742 14.6411 4.21777 14.6085 4.0541C14.5759 3.89043 14.4956 3.74009 14.3776 3.62209C14.2596 3.50409 14.1092 3.42373 13.9456 3.39117C13.7819 3.35861 13.6122 3.37532 13.4581 3.43918C13.3039 3.50305 13.1721 3.61119 13.0794 3.74995C12.9867 3.8887 12.9372 4.05183 12.9372 4.21871C12.9372 4.44248 13.0261 4.6571 13.1843 4.81533C13.3426 4.97356 13.5572 5.06246 13.781 5.06246ZM15.7961 8.99996C15.6475 8.9877 15.5001 9.03496 15.3863 9.13134C15.2725 9.22772 15.2017 9.36534 15.1893 9.51394C15.0887 10.6899 14.6542 11.8126 13.9371 12.75C13.22 13.6875 12.2501 14.4006 11.1415 14.8054C10.0328 15.2103 8.83162 15.2901 7.67917 15.0355C6.52672 14.7809 5.47097 14.2024 4.63615 13.3681C3.80132 12.5338 3.22216 11.4784 2.96679 10.3261C2.71142 9.17379 2.79048 7.97253 3.19466 6.86365C3.59885 5.75476 4.31134 4.78439 5.2483 4.0667C6.18527 3.34901 7.30773 2.91386 8.48361 2.81246C8.55748 2.80636 8.62943 2.78578 8.69534 2.75188C8.76126 2.71798 8.81985 2.67143 8.86777 2.61489C8.91569 2.55835 8.95201 2.49292 8.97465 2.42234C8.99729 2.35177 9.0058 2.27742 8.99971 2.20355C8.99361 2.12968 8.97303 2.05774 8.93913 1.99182C8.90523 1.92591 8.85868 1.86732 8.80214 1.8194C8.7456 1.77147 8.68017 1.73515 8.60959 1.71252C8.53902 1.68988 8.46467 1.68136 8.3908 1.68746C7.00145 1.80697 5.67512 2.32079 4.56787 3.16849C3.46062 4.01619 2.61851 5.16249 2.14061 6.47253C1.6627 7.78257 1.5689 9.20185 1.87022 10.5634C2.17155 11.9249 2.85547 13.1721 3.84152 14.1581C4.82757 15.1442 6.07473 15.8281 7.43628 16.1294C8.79782 16.4308 10.2171 16.337 11.5271 15.8591C12.8372 15.3812 13.9835 14.539 14.8312 13.4318C15.6789 12.3245 16.1927 10.9982 16.3122 9.60886C16.3186 9.53495 16.3102 9.4605 16.2877 9.38982C16.2651 9.31913 16.2288 9.25361 16.1809 9.19701C16.1329 9.14041 16.0742 9.09387 16.0082 9.06005C15.9421 9.02623 15.8701 9.00581 15.7961 8.99996ZM8.99971 3.93746C10.001 3.93746 10.9798 4.23437 11.8123 4.79064C12.6448 5.34692 13.2937 6.13757 13.6768 7.06262C14.06 7.98767 14.1603 9.00557 13.9649 9.9876C13.7696 10.9696 13.2874 11.8717 12.5794 12.5797C11.8714 13.2877 10.9694 13.7698 9.98735 13.9652C9.00532 14.1605 7.98742 14.0603 7.06237 13.6771C6.13732 13.2939 5.34667 12.6451 4.79039 11.8125C4.23412 10.98 3.93721 10.0012 3.93721 8.99996C3.9387 7.65776 4.47254 6.37095 5.42162 5.42187C6.37071 4.47279 7.65751 3.93895 8.99971 3.93746ZM8.43721 8.99996C8.43721 9.14914 8.49647 9.29222 8.60196 9.39771C8.70745 9.50319 8.85052 9.56246 8.99971 9.56246H12.3747C12.5239 9.56246 12.667 9.50319 12.7725 9.39771C12.8779 9.29222 12.9372 9.14914 12.9372 8.99996C12.9372 8.85077 12.8779 8.7077 12.7725 8.60221C12.667 8.49672 12.5239 8.43746 12.3747 8.43746H9.56221V5.62496C9.56221 5.47577 9.50295 5.3327 9.39746 5.22721C9.29197 5.12172 9.14889 5.06246 8.99971 5.06246C8.85052 5.06246 8.70745 5.12172 8.60196 5.22721C8.49647 5.3327 8.43721 5.47577 8.43721 5.62496V8.99996ZM11.2497 3.37496C11.4166 3.37496 11.5797 3.32547 11.7185 3.23276C11.8572 3.14005 11.9654 3.00827 12.0292 2.8541C12.0931 2.69992 12.1098 2.53027 12.0772 2.3666C12.0447 2.20293 11.9643 2.05259 11.8463 1.93459C11.7283 1.81659 11.578 1.73623 11.4143 1.70367C11.2506 1.67111 11.081 1.68782 10.9268 1.75168C10.7726 1.81555 10.6409 1.92369 10.5482 2.06245C10.4554 2.2012 10.406 2.36433 10.406 2.53121C10.406 2.75498 10.4949 2.9696 10.6531 3.12783C10.8113 3.28606 11.0259 3.37496 11.2497 3.37496Z"/></svg>