<svg xmlns="http://www.w3.org/2000/svg" width="18" height="18" fill="none" viewBox="0 0 18 18"><path fill="currentColor" d="M16.3125 9.00021C16.3125 9.03607 16.3125 9.07053 16.3125 9.10709C16.2886 10.1097 15.9166 11.2502 14.3438 11.2502C12.7167 11.2502 12.375 10.0268 12.375 9.00021V6.18771C12.3752 6.1106 12.3595 6.03428 12.3289 5.96349C12.2983 5.89269 12.2535 5.82894 12.1973 5.77619C12.1411 5.72344 12.0746 5.68281 12.002 5.65684C11.9293 5.63087 11.8522 5.6201 11.7752 5.62521C11.6303 5.63766 11.4956 5.70459 11.3981 5.8125C11.3006 5.92042 11.2477 6.06129 11.25 6.2067V6.48795C10.7422 6.03284 10.1085 5.74222 9.43224 5.65437C8.75602 5.56653 8.06905 5.68558 7.46183 5.99585C6.8546 6.30611 6.35561 6.79304 6.03056 7.39248C5.70552 7.99192 5.56968 8.67577 5.64094 9.35393C5.7122 10.0321 5.98721 10.6728 6.42975 11.1916C6.87229 11.7104 7.4616 12.0829 8.12005 12.2602C8.7785 12.4375 9.47521 12.4111 10.1184 12.1847C10.7616 11.9582 11.3211 11.5422 11.7232 10.9915C11.7935 11.1144 11.8729 11.232 11.9609 11.343C12.3384 11.8127 13.0577 12.3752 14.3438 12.3752C14.5609 12.3759 14.7778 12.3583 14.992 12.3225C15.045 12.3136 15.0994 12.3202 15.1488 12.3412C15.1981 12.3623 15.2404 12.3971 15.2707 12.4415C15.3009 12.4859 15.3178 12.5379 15.3194 12.5916C15.321 12.6453 15.3072 12.6983 15.2796 12.7444C14.6185 13.8533 13.6757 14.7675 12.547 15.3943C11.4183 16.021 10.1438 16.3379 8.85305 16.3127C5.00133 16.2354 1.84219 13.1388 1.69312 9.2892C1.655 8.31768 1.81099 7.34831 2.15199 6.4378C2.49298 5.5273 3.01212 4.69393 3.67904 3.98646C4.34597 3.27899 5.14728 2.71162 6.0361 2.31754C6.92492 1.92346 7.8834 1.71058 8.85548 1.69137C9.82756 1.67215 10.7937 1.84698 11.6974 2.20563C12.6011 2.56427 13.4242 3.09954 14.1186 3.7801C14.8129 4.46066 15.3646 5.27286 15.7413 6.16918C16.118 7.0655 16.3122 8.02795 16.3125 9.00021ZM6.75 9.00021C6.75 9.44522 6.88196 9.88024 7.12919 10.2502C7.37643 10.6203 7.72783 10.9086 8.13896 11.0789C8.5501 11.2492 9.0025 11.2938 9.43895 11.207C9.87541 11.1202 10.2763 10.9059 10.591 10.5912C10.9057 10.2765 11.12 9.87562 11.2068 9.43917C11.2936 9.00271 11.249 8.55031 11.0787 8.13918C10.9084 7.72804 10.62 7.37664 10.25 7.12941C9.88002 6.88217 9.44501 6.75021 9 6.75021C8.40326 6.75021 7.83097 6.98727 7.40901 7.40922C6.98705 7.83118 6.75 8.40348 6.75 9.00021Z"/></svg>