<svg xmlns="http://www.w3.org/2000/svg" width="18" height="18" fill="none" viewBox="0 0 18 18"><path fill="currentColor" d="M13.9309 14.2628C13.9999 14.3448 14.044 14.4448 14.0581 14.5511C14.0721 14.6573 14.0556 14.7654 14.0103 14.8625C13.965 14.9597 13.8929 15.0419 13.8025 15.0994C13.712 15.157 13.6071 15.1875 13.4999 15.1874H1.68737C1.58024 15.1874 1.47536 15.1567 1.38504 15.0991C1.29472 15.0415 1.22272 14.9593 1.17752 14.8622C1.13232 14.7651 1.1158 14.6571 1.12989 14.5509C1.14398 14.4447 1.18809 14.3447 1.25706 14.2628C2.30752 13.0126 3.61393 12.1246 5.06588 11.6493C4.1841 11.1 3.50517 10.2786 3.13182 9.30917C2.75847 8.33974 2.71101 7.2751 2.99662 6.2763C3.28223 5.2775 3.88537 4.39889 4.71479 3.7734C5.54421 3.14791 6.55478 2.80957 7.59362 2.80957C8.63245 2.80957 9.64302 3.14791 10.4724 3.7734C11.3019 4.39889 11.905 5.2775 12.1906 6.2763C12.4762 7.2751 12.4288 8.33974 12.0554 9.30917C11.6821 10.2786 11.0031 11.1 10.1214 11.6493C11.5733 12.1246 12.8797 13.0126 13.9309 14.2628ZM13.8416 4.31637C13.7736 4.34535 13.712 4.38743 13.6603 4.44022C13.6086 4.49302 13.5678 4.55547 13.5403 4.62403C13.5127 4.6926 13.4989 4.76591 13.4997 4.8398C13.5005 4.91368 13.5159 4.98669 13.5449 5.05465C13.8864 5.85756 14.0624 6.72111 14.0624 7.59363C14.0624 8.46615 13.8864 9.3297 13.5449 10.1326C13.4862 10.2699 13.4845 10.4248 13.5401 10.5633C13.5957 10.7018 13.704 10.8126 13.8412 10.8713C13.9785 10.9299 14.1334 10.9316 14.2719 10.876C14.4105 10.8205 14.5212 10.7121 14.5799 10.5749C14.9807 9.63208 15.1874 8.61812 15.1873 7.59363C15.1874 6.56915 14.9807 5.55518 14.5799 4.61238C14.5212 4.47524 14.4105 4.36701 14.272 4.31149C14.1336 4.25598 13.9787 4.25773 13.8416 4.31637ZM16.6435 3.7159C16.6159 3.64589 16.5746 3.58213 16.5219 3.52839C16.4692 3.47466 16.4062 3.43205 16.3368 3.40308C16.2673 3.37411 16.1928 3.35937 16.1175 3.35973C16.0423 3.3601 15.9678 3.37556 15.8987 3.40521C15.8295 3.43485 15.767 3.47808 15.7148 3.53232C15.6626 3.58656 15.6219 3.65072 15.595 3.721C15.5681 3.79127 15.5555 3.86624 15.5581 3.94145C15.5606 4.01666 15.5783 4.09059 15.6099 4.15887C16.0734 5.24467 16.3124 6.41304 16.3124 7.59363C16.3124 8.77422 16.0734 9.9426 15.6099 11.0284C15.5783 11.0967 15.5606 11.1706 15.5581 11.2458C15.5555 11.321 15.5681 11.396 15.595 11.4663C15.6219 11.5365 15.6626 11.6007 15.7148 11.6549C15.767 11.7092 15.8295 11.7524 15.8987 11.7821C15.9678 11.8117 16.0423 11.8272 16.1175 11.8275C16.1928 11.8279 16.2673 11.8132 16.3368 11.7842C16.4062 11.7552 16.4692 11.7126 16.5219 11.6589C16.5746 11.6051 16.6159 11.5414 16.6435 11.4714C17.1673 10.2457 17.4374 8.92656 17.4374 7.59363C17.4374 6.2607 17.1673 4.94159 16.6435 3.7159Z"/></svg>