<svg xmlns="http://www.w3.org/2000/svg" width="18" height="18" fill="none" viewBox="0 0 18 18"><path fill="currentColor" d="M14.625 2.25H3.375C3.07663 2.25 2.79048 2.36853 2.5795 2.5795C2.36853 2.79048 2.25 3.07663 2.25 3.375V14.625C2.25 14.9234 2.36853 15.2095 2.5795 15.4205C2.79048 15.6315 3.07663 15.75 3.375 15.75H14.625C14.9234 15.75 15.2095 15.6315 15.4205 15.4205C15.6315 15.2095 15.75 14.9234 15.75 14.625V3.375C15.75 3.07663 15.6315 2.79048 15.4205 2.5795C15.2095 2.36853 14.9234 2.25 14.625 2.25ZM4.5 5.0625H13.5C13.6492 5.0625 13.7923 5.12176 13.8977 5.22725C14.0032 5.33274 14.0625 5.47582 14.0625 5.625C14.0625 5.77418 14.0032 5.91726 13.8977 6.02275C13.7923 6.12824 13.6492 6.1875 13.5 6.1875H4.5C4.35082 6.1875 4.20774 6.12824 4.10225 6.02275C3.99676 5.91726 3.9375 5.77418 3.9375 5.625C3.9375 5.47582 3.99676 5.33274 4.10225 5.22725C4.20774 5.12176 4.35082 5.0625 4.5 5.0625ZM7.3125 12.9375H4.5C4.35082 12.9375 4.20774 12.8782 4.10225 12.7727C3.99676 12.6673 3.9375 12.5242 3.9375 12.375C3.9375 12.2258 3.99676 12.0827 4.10225 11.9773C4.20774 11.8718 4.35082 11.8125 4.5 11.8125H7.3125C7.46168 11.8125 7.60476 11.8718 7.71025 11.9773C7.81574 12.0827 7.875 12.2258 7.875 12.375C7.875 12.5242 7.81574 12.6673 7.71025 12.7727C7.60476 12.8782 7.46168 12.9375 7.3125 12.9375ZM7.3125 9.5625H4.5C4.35082 9.5625 4.20774 9.50324 4.10225 9.39775C3.99676 9.29226 3.9375 9.14918 3.9375 9C3.9375 8.85082 3.99676 8.70774 4.10225 8.60225C4.20774 8.49676 4.35082 8.4375 4.5 8.4375H7.3125C7.46168 8.4375 7.60476 8.49676 7.71025 8.60225C7.81574 8.70774 7.875 8.85082 7.875 9C7.875 9.14918 7.81574 9.29226 7.71025 9.39775C7.60476 9.50324 7.46168 9.5625 7.3125 9.5625ZM13.8122 11.1558L10.4372 13.4058C10.3447 13.4673 10.2361 13.5001 10.125 13.5C9.97582 13.5 9.83274 13.4407 9.72725 13.3352C9.62176 13.2298 9.5625 13.0867 9.5625 12.9375V8.4375C9.56243 8.33564 9.59003 8.23567 9.64234 8.14827C9.69465 8.06087 9.76971 7.98931 9.85951 7.94123C9.94931 7.89315 10.0505 7.87036 10.1522 7.87529C10.254 7.88022 10.3525 7.91269 10.4372 7.96922L13.8122 10.2192C13.8893 10.2706 13.9526 10.3402 13.9964 10.4219C14.0401 10.5036 14.063 10.5948 14.063 10.6875C14.063 10.7802 14.0401 10.8714 13.9964 10.9531C13.9526 11.0348 13.8893 11.1044 13.8122 11.1558Z"/></svg>