<svg xmlns="http://www.w3.org/2000/svg" width="18" height="18" fill="none" viewBox="0 0 18 18"><g clip-path="url(#clip0_1672_7936)"><path fill="currentColor" d="M17.4326 8.75531C17.3046 5.45203 14.5596 2.8125 11.2542 2.8125C10.1044 2.81268 8.97731 3.13289 7.99914 3.73727C7.02097 4.34166 6.23032 5.20637 5.7157 6.23461C5.28799 7.08706 5.06437 8.02729 5.0625 8.98102C5.0647 9.12593 5.01212 9.26634 4.91525 9.37415C4.81839 9.48196 4.6844 9.54923 4.54008 9.5625C4.46291 9.56801 4.38543 9.55755 4.31249 9.53176C4.23955 9.50597 4.17271 9.46541 4.11616 9.41262C4.05961 9.35982 4.01455 9.29593 3.98381 9.22494C3.95307 9.15394 3.9373 9.07737 3.9375 9C3.93691 8.21323 4.0637 7.43155 4.31297 6.68531C4.32939 6.63746 4.33261 6.58607 4.32227 6.53655C4.31193 6.48703 4.28843 6.44121 4.25424 6.40392C4.22005 6.36664 4.17644 6.33926 4.128 6.32469C4.07955 6.31011 4.02807 6.30887 3.97898 6.32109C3.00433 6.56402 2.13878 7.12563 1.51979 7.91672C0.900804 8.70781 0.563871 9.68303 0.5625 10.6875C0.5625 13.1618 2.6543 15.1875 5.13281 15.1875H11.25C12.0829 15.1866 12.907 15.0177 13.6732 14.691C14.4393 14.3643 15.1316 13.8864 15.7088 13.2859C16.286 12.6854 16.7361 11.9747 17.0323 11.1962C17.3285 10.4178 17.4646 9.58759 17.4326 8.75531ZM13.898 10.523L11.648 12.773C11.5957 12.8253 11.5337 12.8668 11.4654 12.8951C11.3971 12.9234 11.3239 12.9379 11.25 12.9379C11.1761 12.9379 11.1029 12.9234 11.0346 12.8951C10.9663 12.8668 10.9043 12.8253 10.852 12.773L8.60203 10.523C8.49648 10.4174 8.43719 10.2743 8.43719 10.125C8.43719 9.97573 8.49648 9.83258 8.60203 9.72703C8.70758 9.62148 8.85073 9.56219 9 9.56219C9.14927 9.56219 9.29242 9.62148 9.39797 9.72703L10.6875 11.0173V6.75C10.6875 6.60082 10.7468 6.45774 10.8523 6.35225C10.9577 6.24676 11.1008 6.1875 11.25 6.1875C11.3992 6.1875 11.5423 6.24676 11.6477 6.35225C11.7532 6.45774 11.8125 6.60082 11.8125 6.75V11.0173L13.102 9.72703C13.2076 9.62148 13.3507 9.56219 13.5 9.56219C13.6493 9.56219 13.7924 9.62148 13.898 9.72703C14.0035 9.83258 14.0628 9.97573 14.0628 10.125C14.0628 10.2743 14.0035 10.4174 13.898 10.523Z"/></g><defs><clipPath id="clip0_1672_7936"><rect width="18" height="18" fill="#fff"/></clipPath></defs></svg>