<svg xmlns="http://www.w3.org/2000/svg" width="18" height="18" fill="none" viewBox="0 0 18 18"><path fill="currentColor" d="M14.625 2.25H3.375C3.07663 2.25 2.79048 2.36853 2.5795 2.5795C2.36853 2.79048 2.25 3.07663 2.25 3.375V14.625C2.25 14.9234 2.36853 15.2095 2.5795 15.4205C2.79048 15.6315 3.07663 15.75 3.375 15.75H11.0173C11.165 15.7502 11.3114 15.7212 11.4479 15.6646C11.5843 15.608 11.7083 15.525 11.8125 15.4202L15.4202 11.8125C15.525 11.7083 15.608 11.5843 15.6646 11.4479C15.7212 11.3114 15.7502 11.165 15.75 11.0173V3.375C15.75 3.07663 15.6315 2.79048 15.4205 2.5795C15.2095 2.36853 14.9234 2.25 14.625 2.25ZM6.75 6.1875H11.25C11.3992 6.1875 11.5423 6.24676 11.6477 6.35225C11.7532 6.45774 11.8125 6.60082 11.8125 6.75C11.8125 6.89918 11.7532 7.04226 11.6477 7.14775C11.5423 7.25324 11.3992 7.3125 11.25 7.3125H6.75C6.60082 7.3125 6.45774 7.25324 6.35225 7.14775C6.24676 7.04226 6.1875 6.89918 6.1875 6.75C6.1875 6.60082 6.24676 6.45774 6.35225 6.35225C6.45774 6.24676 6.60082 6.1875 6.75 6.1875ZM9 11.8125H6.75C6.60082 11.8125 6.45774 11.7532 6.35225 11.6477C6.24676 11.5423 6.1875 11.3992 6.1875 11.25C6.1875 11.1008 6.24676 10.9577 6.35225 10.8523C6.45774 10.7468 6.60082 10.6875 6.75 10.6875H9C9.14919 10.6875 9.29226 10.7468 9.39775 10.8523C9.50324 10.9577 9.5625 11.1008 9.5625 11.25C9.5625 11.3992 9.50324 11.5423 9.39775 11.6477C9.29226 11.7532 9.14919 11.8125 9 11.8125ZM6.75 9.5625C6.60082 9.5625 6.45774 9.50324 6.35225 9.39775C6.24676 9.29226 6.1875 9.14919 6.1875 9C6.1875 8.85082 6.24676 8.70774 6.35225 8.60225C6.45774 8.49676 6.60082 8.4375 6.75 8.4375H11.25C11.3992 8.4375 11.5423 8.49676 11.6477 8.60225C11.7532 8.70774 11.8125 8.85082 11.8125 9C11.8125 9.14919 11.7532 9.29226 11.6477 9.39775C11.5423 9.50324 11.3992 9.5625 11.25 9.5625H6.75ZM11.25 14.3923V11.25H14.393L11.25 14.3923Z"/></svg>