<svg viewBox="0 0 42 42" fill="none" xmlns="http://www.w3.org/2000/svg">
  <path
    d="M21 3.9375C25.1757 3.94228 29.1792 5.603 32.1318 8.55566C35.0845 11.5083 36.7452 15.5118 36.75 19.6875V35.4375C36.7501 35.686 36.6798 35.9296 36.5469 36.1396C36.414 36.3497 36.2237 36.5176 35.999 36.624C35.7744 36.7303 35.524 36.7705 35.2773 36.7402C35.0308 36.7099 34.7976 36.6106 34.6055 36.4531L30.626 33.1963L26.6436 36.4531C26.4091 36.6448 26.1153 36.75 25.8125 36.75C25.5097 36.7499 25.2158 36.6449 24.9814 36.4531L21 33.1963L17.0186 36.4531C16.7842 36.6449 16.4903 36.7499 16.1875 36.75C15.8847 36.75 15.5909 36.6448 15.3564 36.4531L11.374 33.1963L7.39453 36.4531C7.20237 36.6106 6.96921 36.7099 6.72266 36.7402C6.47604 36.7705 6.22555 36.7303 6.00098 36.624C5.77634 36.5176 5.58602 36.3497 5.45312 36.1396C5.32025 35.9296 5.24995 35.686 5.25 35.4375V19.6875C5.25478 15.5118 6.9155 11.5083 9.86816 8.55566C12.8208 5.603 16.8243 3.94228 21 3.9375ZM12.25 19.25C12.25 21.183 13.817 22.75 15.75 22.75C17.683 22.75 19.25 21.183 19.25 19.25V15.75H12.25V19.25ZM22.75 15.75V19.25C22.75 21.183 24.317 22.75 26.25 22.75C28.183 22.75 29.75 21.183 29.75 19.25V15.75H22.75Z"
    fill="currentColor"
  />
</svg>
