<svg xmlns="http://www.w3.org/2000/svg" width="18" height="18" fill="none" viewBox="0 0 18 18"><path fill="#8BC0E0" d="M9 1.6875C7.55373 1.6875 6.13993 2.11637 4.9374 2.91988C3.73486 3.72339 2.7976 4.86544 2.24413 6.20163C1.69067 7.53781 1.54586 9.00811 1.82801 10.4266C2.11017 11.8451 2.80661 13.148 3.82928 14.1707C4.85196 15.1934 6.15492 15.8898 7.57341 16.172C8.99189 16.4541 10.4622 16.3093 11.7984 15.7559C13.1346 15.2024 14.2766 14.2651 15.0801 13.0626C15.8836 11.8601 16.3125 10.4463 16.3125 9C16.3105 7.06123 15.5394 5.20246 14.1685 3.83154C12.7975 2.46063 10.9388 1.68955 9 1.6875ZM9.5625 15.1615V10.6875H11.25C11.3992 10.6875 11.5423 10.6282 11.6478 10.5227C11.7532 10.4173 11.8125 10.2742 11.8125 10.125C11.8125 9.97582 11.7532 9.83274 11.6478 9.72725C11.5423 9.62176 11.3992 9.5625 11.25 9.5625H9.5625V7.875C9.5625 7.57663 9.68103 7.29048 9.89201 7.07951C10.103 6.86853 10.3891 6.75 10.6875 6.75H11.8125C11.9617 6.75 12.1048 6.69074 12.2103 6.58525C12.3157 6.47976 12.375 6.33668 12.375 6.1875C12.375 6.03832 12.3157 5.89524 12.2103 5.78975C12.1048 5.68426 11.9617 5.625 11.8125 5.625H10.6875C10.0908 5.625 9.51847 5.86205 9.09651 6.28401C8.67456 6.70597 8.4375 7.27826 8.4375 7.875V9.5625H6.75C6.60082 9.5625 6.45774 9.62176 6.35226 9.72725C6.24677 9.83274 6.1875 9.97582 6.1875 10.125C6.1875 10.2742 6.24677 10.4173 6.35226 10.5227C6.45774 10.6282 6.60082 10.6875 6.75 10.6875H8.4375V15.1615C6.85181 15.0167 5.38296 14.2662 4.33648 13.0661C3.29 11.866 2.74646 10.3087 2.81891 8.71806C2.89136 7.12743 3.57423 5.62595 4.72548 4.52595C5.87672 3.42595 7.40772 2.81211 9 2.81211C10.5923 2.81211 12.1233 3.42595 13.2745 4.52595C14.4258 5.62595 15.1086 7.12743 15.1811 8.71806C15.2535 10.3087 14.71 11.866 13.6635 13.0661C12.617 14.2662 11.1482 15.0167 9.5625 15.1615Z"/></svg>