<svg xmlns="http://www.w3.org/2000/svg" width="18" height="18" fill="none" viewBox="0 0 18 18"><path fill="currentColor" d="M16.473 8.07557L13.3089 10.8058L14.2729 14.8888C14.3261 15.1105 14.3124 15.3429 14.2335 15.5568C14.1547 15.7707 14.0142 15.9564 13.8299 16.0905C13.6456 16.2245 13.4256 16.301 13.1979 16.3101C12.9701 16.3193 12.7447 16.2607 12.5502 16.1418L8.99947 13.9565L5.44658 16.1418C5.25211 16.26 5.02703 16.318 4.79966 16.3085C4.57229 16.2991 4.35281 16.2225 4.16886 16.0886C3.98491 15.9546 3.8447 15.7692 3.7659 15.5557C3.6871 15.3422 3.67323 15.1102 3.72603 14.8888L4.69353 10.8058L1.52947 8.07557C1.35741 7.92686 1.23298 7.73077 1.17171 7.51176C1.11043 7.29276 1.11504 7.06056 1.18495 6.84416C1.25486 6.62776 1.38697 6.43675 1.56479 6.29499C1.7426 6.15323 1.95824 6.06699 2.18478 6.04705L6.33322 5.71236L7.93353 1.83955C8.02015 1.62848 8.16758 1.44794 8.35707 1.32088C8.54656 1.19382 8.76956 1.12598 8.99771 1.12598C9.22586 1.12598 9.44886 1.19382 9.63835 1.32088C9.82784 1.44794 9.97527 1.62848 10.0619 1.83955L11.6615 5.71236L15.8099 6.04705C16.0369 6.06625 16.2532 6.152 16.4317 6.29357C16.6101 6.43514 16.7428 6.62622 16.8132 6.84289C16.8835 7.05955 16.8884 7.29215 16.8271 7.51155C16.7658 7.73096 16.6412 7.9274 16.4688 8.07627L16.473 8.07557Z"/></svg>