<svg xmlns="http://www.w3.org/2000/svg" width="18" height="18" fill="currentColor" viewBox="0 0 18 18"><path fill="currentColor" d="M16.473 8.07459L13.3089 10.8048L14.2729 14.8879C14.3261 15.1095 14.3124 15.342 14.2335 15.5558C14.1547 15.7697 14.0142 15.9554 13.8299 16.0895C13.6456 16.2236 13.4256 16.3 13.1979 16.3091C12.9701 16.3183 12.7447 16.2597 12.5502 16.1408L8.99947 13.9555L5.44658 16.1408C5.25211 16.259 5.02703 16.317 4.79966 16.3076C4.57229 16.2981 4.35281 16.2215 4.16886 16.0876C3.98491 15.9536 3.8447 15.7682 3.7659 15.5547C3.6871 15.3413 3.67323 15.1092 3.72603 14.8879L4.69353 10.8048L1.52947 8.07459C1.35741 7.92589 1.23298 7.72979 1.17171 7.51079C1.11043 7.29179 1.11504 7.05959 1.18495 6.84319C1.25486 6.62679 1.38697 6.43578 1.56479 6.29401C1.7426 6.15225 1.95824 6.06601 2.18478 6.04607L6.33322 5.71139L7.93353 1.83857C8.02015 1.62751 8.16758 1.44697 8.35707 1.31991C8.54656 1.19284 8.76956 1.125 8.99771 1.125C9.22586 1.125 9.44886 1.19284 9.63835 1.31991C9.82784 1.44697 9.97527 1.62751 10.0619 1.83857L11.6615 5.71139L15.8099 6.04607C16.0369 6.06527 16.2532 6.15103 16.4317 6.29259C16.6101 6.43416 16.7428 6.62525 16.8132 6.84191C16.8835 7.05857 16.8884 7.29118 16.8271 7.51058C16.7658 7.72998 16.6412 7.92642 16.4688 8.07529L16.473 8.07459Z"/></svg>