<svg xmlns="http://www.w3.org/2000/svg" width="16" height="15" fill="none" viewBox="0 0 16 15"><path fill="currentColor" d="M14.6251 13.493H11.2051C12.6952 12.5541 13.7963 11.1088 14.3056 9.42284C14.815 7.73687 14.6985 5.92368 13.9774 4.3168C13.2564 2.70992 11.9794 1.41744 10.3813 0.6771C8.78327 -0.0632359 6.97162 -0.201627 5.27964 0.287385C3.58766 0.776397 2.12915 1.85992 1.17243 3.33864C0.215699 4.81735 -0.174903 6.59181 0.0724718 8.33558C0.319847 10.0793 1.18856 11.6752 2.51881 12.8294C3.84906 13.9837 5.55137 14.6188 7.3126 14.618H14.6251C14.7743 14.618 14.9174 14.5587 15.0229 14.4532C15.1283 14.3477 15.1876 14.2047 15.1876 14.0555C15.1876 13.9063 15.1283 13.7632 15.0229 13.6577C14.9174 13.5522 14.7743 13.493 14.6251 13.493ZM3.9376 8.71172C3.65947 8.71172 3.38759 8.62925 3.15633 8.47473C2.92508 8.32021 2.74483 8.10058 2.6384 7.84362C2.53196 7.58666 2.50411 7.30391 2.55837 7.03113C2.61263 6.75834 2.74657 6.50777 2.94323 6.3111C3.1399 6.11444 3.39047 5.9805 3.66326 5.92624C3.93604 5.87198 4.21879 5.89983 4.47575 6.00627C4.73271 6.1127 4.95234 6.29295 5.10686 6.5242C5.26138 6.75546 5.34385 7.02734 5.34385 7.30547C5.34385 7.67843 5.19569 8.03612 4.93197 8.29984C4.66825 8.56356 4.31056 8.71172 3.9376 8.71172ZM7.3126 12.0867C7.03447 12.0867 6.76259 12.0042 6.53133 11.8497C6.30008 11.6952 6.11983 11.4756 6.0134 11.2186C5.90696 10.9617 5.87911 10.6789 5.93337 10.4061C5.98763 10.1333 6.12157 9.88277 6.31823 9.6861C6.5149 9.48944 6.76547 9.3555 7.03826 9.30124C7.31104 9.24698 7.59379 9.27483 7.85075 9.38127C8.10771 9.4877 8.32734 9.66794 8.48186 9.8992C8.63638 10.1305 8.71885 10.4023 8.71885 10.6805C8.71885 11.0534 8.57069 11.4111 8.30697 11.6748C8.04325 11.9386 7.68556 12.0867 7.3126 12.0867ZM7.3126 5.33672C7.03447 5.33672 6.76259 5.25425 6.53133 5.09973C6.30008 4.94521 6.11983 4.72558 6.0134 4.46862C5.90696 4.21166 5.87911 3.92891 5.93337 3.65613C5.98763 3.38334 6.12157 3.13277 6.31823 2.9361C6.5149 2.73944 6.76547 2.6055 7.03826 2.55124C7.31104 2.49698 7.59379 2.52483 7.85075 2.63127C8.10771 2.7377 8.32734 2.91795 8.48186 3.1492C8.63638 3.38046 8.71885 3.65234 8.71885 3.93047C8.71885 4.30343 8.57069 4.66112 8.30697 4.92484C8.04325 5.18856 7.68556 5.33672 7.3126 5.33672ZM9.28135 7.30547C9.28135 7.02734 9.36383 6.75546 9.51835 6.5242C9.67287 6.29295 9.8925 6.1127 10.1495 6.00627C10.4064 5.89983 10.6892 5.87198 10.9619 5.92624C11.2347 5.9805 11.4853 6.11444 11.682 6.3111C11.8786 6.50777 12.0126 6.75834 12.0668 7.03113C12.1211 7.30391 12.0932 7.58666 11.9868 7.84362C11.8804 8.10058 11.7001 8.32021 11.4689 8.47473C11.2376 8.62925 10.9657 8.71172 10.6876 8.71172C10.3146 8.71172 9.95696 8.56356 9.69323 8.29984C9.42951 8.03612 9.28135 7.67843 9.28135 7.30547Z"/></svg>