<svg width="18" height="18" viewBox="0 0 18 18" fill="none" xmlns="http://www.w3.org/2000/svg">
  <path
    d="M18.0002 9.56266C18.0002 9.78643 17.9113 10.001 17.753 10.1593C17.5948 10.3175 17.3802 10.4064 17.1564 10.4064H16.5939V10.9689C16.5939 11.1927 16.505 11.4073 16.3468 11.5655C16.1885 11.7238 15.9739 11.8127 15.7502 11.8127C15.5264 11.8127 15.3118 11.7238 15.1535 11.5655C14.9953 11.4073 14.9064 11.1927 14.9064 10.9689V10.4064H14.3439C14.1201 10.4064 13.9055 10.3175 13.7473 10.1593C13.5891 10.001 13.5002 9.78643 13.5002 9.56266C13.5002 9.33888 13.5891 9.12427 13.7473 8.96604C13.9055 8.8078 14.1201 8.71891 14.3439 8.71891H14.9064V8.15641C14.9064 7.93263 14.9953 7.71802 15.1535 7.55979C15.3118 7.40155 15.5264 7.31266 15.7502 7.31266C15.9739 7.31266 16.1885 7.40155 16.3468 7.55979C16.505 7.71802 16.5939 7.93263 16.5939 8.15641V8.71891H17.1564C17.3802 8.71891 17.5948 8.8078 17.753 8.96604C17.9113 9.12427 18.0002 9.33888 18.0002 9.56266ZM14.1463 13.5198C14.2903 13.6912 14.3603 13.9128 14.3409 14.1357C14.3215 14.3587 14.2143 14.5649 14.043 14.7088C13.8716 14.8528 13.6501 14.9228 13.4271 14.9034C13.2041 14.884 12.998 14.7768 12.854 14.6055C11.8914 13.4594 10.1955 12.0939 7.59391 12.0939C5.56258 12.0939 3.69438 12.9855 2.33383 14.6055C2.18987 14.7768 1.98373 14.884 1.76075 14.9034C1.53777 14.9228 1.31622 14.8528 1.14485 14.7088C0.973474 14.5649 0.866307 14.3587 0.846923 14.1357C0.827539 13.9128 0.897527 13.6912 1.04149 13.5198C1.95817 12.4127 3.13419 11.5493 4.46501 11.0062C3.63745 10.3556 3.0333 9.46314 2.73662 8.45312C2.43994 7.4431 2.4655 6.36572 2.80974 5.3709C3.15397 4.37608 3.79976 3.51332 4.65724 2.90267C5.51471 2.29202 6.54122 1.96387 7.59391 1.96387C8.6466 1.96387 9.67311 2.29202 10.5306 2.90267C11.3881 3.51332 12.0339 4.37608 12.3781 5.3709C12.7223 6.36572 12.7479 7.4431 12.4512 8.45312C12.1545 9.46314 11.5504 10.3556 10.7228 11.0062C12.0537 11.5491 13.2298 12.4126 14.1463 13.5198ZM7.59391 10.4064C8.26142 10.4064 8.91395 10.2085 9.46896 9.83762C10.024 9.46677 10.4566 8.93966 10.712 8.32296C10.9675 7.70626 11.0343 7.02766 10.9041 6.37298C10.7738 5.71829 10.4524 5.11692 9.9804 4.64492C9.5084 4.17292 8.90703 3.85148 8.25234 3.72126C7.59766 3.59103 6.91906 3.65787 6.30236 3.91331C5.68565 4.16876 5.15855 4.60134 4.7877 5.15636C4.41685 5.71137 4.21891 6.36389 4.21891 7.03141C4.21984 7.92623 4.57572 8.78413 5.20845 9.41686C5.84119 10.0496 6.69909 10.4055 7.59391 10.4064Z"
    fill="currentColor"
  />
</svg>
