<svg xmlns="http://www.w3.org/2000/svg" width="18" height="18" fill="currentColor" viewBox="0 0 18 18"><path fill="currentColor" d="M15.1857 9.15203C15.1885 9.05078 15.1885 8.94953 15.1857 8.84828L16.2348 7.53765C16.2898 7.46884 16.3278 7.38807 16.3459 7.30185C16.364 7.21562 16.3616 7.12636 16.3388 7.04125C16.1665 6.3949 15.9093 5.77426 15.5738 5.19554C15.5299 5.11983 15.4688 5.05542 15.3956 5.00745C15.3224 4.95948 15.2389 4.92927 15.152 4.91922L13.4841 4.73359C13.4148 4.66047 13.3445 4.59015 13.2732 4.52265L13.0763 2.85062C13.0662 2.76358 13.0359 2.68012 12.9878 2.60687C12.9397 2.53363 12.8751 2.47263 12.7993 2.42875C12.2206 2.09353 11.6 1.83675 10.9536 1.66515C10.8685 1.64242 10.7792 1.63999 10.693 1.65806C10.6068 1.67614 10.526 1.71421 10.4572 1.76922L9.15008 2.81265C9.04883 2.81265 8.94758 2.81265 8.84633 2.81265L7.5357 1.7657C7.46689 1.71069 7.38612 1.67262 7.29989 1.65454C7.21367 1.63647 7.12441 1.6389 7.03929 1.66164C6.39295 1.83392 5.7723 2.09117 5.19359 2.42664C5.11788 2.4706 5.05347 2.53163 5.0055 2.60487C4.95753 2.67811 4.92731 2.76154 4.91726 2.84851L4.73164 4.51914C4.65851 4.58898 4.5882 4.65929 4.5207 4.73008L2.84867 4.92203C2.76163 4.93216 2.67816 4.96248 2.60492 5.01057C2.53167 5.05867 2.47068 5.12322 2.42679 5.19906C2.09165 5.77785 1.83465 6.39848 1.6625 7.04476C1.63986 7.12993 1.63754 7.21922 1.65574 7.30545C1.67393 7.39167 1.71214 7.47242 1.76726 7.54117L2.8107 8.84828C2.8107 8.94953 2.8107 9.05078 2.8107 9.15203L1.76375 10.4627C1.70874 10.5315 1.67067 10.6122 1.65259 10.6985C1.63452 10.7847 1.63695 10.8739 1.65969 10.9591C1.83197 11.6054 2.08921 12.2261 2.42469 12.8048C2.46865 12.8805 2.52968 12.9449 2.60292 12.9929C2.67616 13.0408 2.75959 13.071 2.84656 13.0811L4.51437 13.2667C4.58422 13.3398 4.65453 13.4102 4.72531 13.4777L4.92008 15.1497C4.9302 15.2367 4.96052 15.3202 5.00862 15.3934C5.05672 15.4667 5.12126 15.5277 5.19711 15.5716C5.77589 15.9067 6.39653 16.1637 7.04281 16.3359C7.12798 16.3585 7.21727 16.3608 7.3035 16.3426C7.38972 16.3244 7.47046 16.2862 7.53922 16.2311L8.84633 15.1877C8.94758 15.1905 9.04883 15.1905 9.15008 15.1877L10.4607 16.2367C10.5295 16.2917 10.6103 16.3298 10.6965 16.3479C10.7827 16.3659 10.872 16.3635 10.9571 16.3408C11.6036 16.1688 12.2242 15.9115 12.8028 15.5758C12.8785 15.5318 12.9429 15.4708 12.9909 15.3975C13.0389 15.3243 13.0691 15.2409 13.0791 15.1539L13.2648 13.4861C13.3379 13.4167 13.4082 13.3464 13.4757 13.2752L15.1477 13.0783C15.2348 13.0682 15.3182 13.0378 15.3915 12.9897C15.4647 12.9416 15.5257 12.8771 15.5696 12.8012C15.9048 12.2225 16.1618 11.6018 16.3339 10.9555C16.3565 10.8704 16.3589 10.7811 16.3407 10.6949C16.3225 10.6086 16.2843 10.5279 16.2291 10.4591L15.1857 9.15203ZM8.9982 11.8127C8.44194 11.8127 7.89817 11.6477 7.43566 11.3387C6.97315 11.0296 6.61266 10.5904 6.39979 10.0765C6.18692 9.56253 6.13122 8.99703 6.23974 8.45146C6.34826 7.90589 6.61613 7.40475 7.00946 7.01142C7.4028 6.61808 7.90394 6.35022 8.44951 6.2417C8.99508 6.13317 9.56058 6.18887 10.0745 6.40174C10.5884 6.61461 11.0277 6.9751 11.3367 7.43761C11.6458 7.90013 11.8107 8.44389 11.8107 9.00015C11.8107 9.74608 11.5144 10.4614 10.9869 10.9889C10.4595 11.5163 9.74412 11.8127 8.9982 11.8127Z"/></svg>