<svg xmlns="http://www.w3.org/2000/svg" width="18" height="18" fill="none" viewBox="0 0 18 18"><path fill="currentColor" d="M15.75 8.43768V15.1877C15.75 15.3369 15.6907 15.4799 15.5853 15.5854C15.4798 15.6909 15.3367 15.7502 15.1875 15.7502H2.81251C2.66332 15.7502 2.52025 15.6909 2.41476 15.5854C2.30927 15.4799 2.25001 15.3369 2.25001 15.1877V8.43768C2.24948 8.28978 2.27836 8.14325 2.33498 8.0066C2.39159 7.86996 2.4748 7.74594 2.57977 7.64174L8.20477 2.01674C8.41573 1.80593 8.70177 1.6875 9.00001 1.6875C9.29825 1.6875 9.58428 1.80593 9.79524 2.01674L15.4202 7.64174C15.5252 7.74594 15.6084 7.86996 15.665 8.0066C15.7217 8.14325 15.7505 8.28978 15.75 8.43768Z"/></svg>