<svg width="18" height="18" viewBox="0 0 18 18" fill="none" xmlns="http://www.w3.org/2000/svg">
	<g clip-path="url(#clip0_2235_6648)">
		<path
			d="M16.3125 9.00091C16.3128 10.2634 15.9862 11.5044 15.3645 12.6033C14.7429 13.7021 13.8473 14.6212 12.765 15.2713C11.6827 15.9213 10.4506 16.28 9.18854 16.3126C7.92647 16.3451 6.67748 16.0504 5.56312 15.457L3.16898 16.255C2.97076 16.3212 2.75805 16.3307 2.55468 16.2828C2.35132 16.2348 2.16533 16.1311 2.01758 15.9833C1.86983 15.8356 1.76615 15.6496 1.71815 15.4462C1.67016 15.2429 1.67975 15.0301 1.74586 14.8319L2.54391 12.4378C2.02229 11.4571 1.73095 10.3704 1.692 9.26034C1.65305 8.15024 1.8675 7.04585 2.3191 6.031C2.77069 5.01616 3.44754 4.11753 4.29829 3.40332C5.14903 2.68912 6.1513 2.17812 7.22902 1.9091C8.30674 1.64008 9.43158 1.62012 10.5182 1.85074C11.6047 2.08135 12.6245 2.55647 13.5001 3.24004C14.3756 3.92361 15.0839 4.79766 15.5712 5.79585C16.0585 6.79403 16.312 7.89012 16.3125 9.00091Z"
			fill="#8BC0E0"
		/>
	</g>
	<defs>
		<clipPath id="clip0_2235_6648">
			<rect width="18" height="18" fill="white" />
		</clipPath>
	</defs>
</svg>
