<svg width="68" height="67" viewBox="0 0 68 67" fill="none" xmlns="http://www.w3.org/2000/svg">
<path d="M43.6363 41.717C43.2893 40.3598 42.8687 39.0026 42.3534 37.6246C41.365 34.993 40.0926 32.3406 38.5153 29.6571C34.3617 22.6014 29.3458 17.4003 23.4571 14.0537C23.394 14.0123 23.3204 13.9812 23.2573 13.9398C17.9365 10.9559 13.3307 10.3135 9.44001 12.0127L8.39899 12.5203C7.18971 13.1938 6.15919 14.0537 5.31795 15.1002C3.67754 17.0895 2.68909 19.7315 2.33156 23.0366C2.22641 23.9691 2.17383 24.9637 2.17383 26.0101C2.17383 26.6525 2.19486 27.2845 2.23692 27.9269C2.33156 29.6053 2.5629 31.2942 2.92043 32.9933C3.43569 35.4178 4.21383 37.8733 5.26538 40.3495C5.94888 42.0072 6.76909 43.6649 7.69445 45.3433C7.92579 45.7578 8.15713 46.1619 8.39899 46.5764C10.2918 49.8089 12.3738 52.6374 14.6347 55.0825C17.3161 58.0043 20.2604 60.3665 23.4571 62.19C25.2237 63.195 26.9062 63.9411 28.5151 64.4384H28.5256C32.2796 65.5885 35.613 65.3398 38.5153 63.7132C38.7571 63.5785 38.9885 63.4334 39.2198 63.278C39.5773 63.0501 39.9138 62.7911 40.2293 62.5217C42.9318 60.2527 44.4144 56.73 44.6879 51.9433C44.7194 51.3942 44.7404 50.8243 44.7404 50.2337C44.7404 47.426 44.3724 44.587 43.6363 41.717ZM25.5813 53.7667L21.7326 51.5805L21.3225 51.3527V32.0919L25.5813 34.5164V53.7667ZM25.4761 27.9269C25.392 28.2377 25.2132 28.476 24.9503 28.6211C24.5192 28.8594 24.025 28.8179 23.4571 28.4967C22.8893 28.1652 22.3951 27.6471 21.9639 26.9219C21.5433 26.1966 21.3225 25.5128 21.3225 24.8704C21.3225 24.2281 21.5433 23.7929 21.9639 23.5546C22.3951 23.3163 22.8893 23.3578 23.4571 23.679C23.7936 23.8654 24.1091 24.1348 24.3825 24.4664C24.5928 24.6943 24.7716 24.9533 24.9503 25.2434C25.3709 25.9687 25.5813 26.6525 25.5813 27.2949C25.5813 27.5332 25.5497 27.7404 25.4761 27.9269Z" fill="#4EC8A6"/>
<path d="M25.581 49.2593V53.7662L21.7324 51.5801L21.3223 51.3522L25.581 49.2593Z" fill="#00684F"/>
<path d="M25.581 34.5161V49.2596L21.3223 51.3525V32.0918L25.581 34.5161Z" fill="#00876A"/>
<path d="M25.581 27.2948C25.581 27.5331 25.5494 27.7404 25.4758 27.9269C25.3916 28.2377 25.2129 28.476 24.95 28.621C24.5189 28.8593 24.0247 28.8179 23.4569 28.4967C22.8891 28.1652 22.3948 27.6471 21.9637 26.9219C21.5431 26.1966 21.3223 25.5128 21.3223 24.8704C21.3223 24.228 21.5431 23.7929 21.9637 23.5546C22.3948 23.3163 22.8891 23.3577 23.4569 23.6789C23.7934 23.8654 24.1089 24.1348 24.3823 24.4663C24.5926 24.6943 24.7712 24.9533 24.95 25.2434C25.3706 25.9687 25.581 26.6525 25.581 27.2948Z" fill="#00684F"/>
<path d="M65.7708 39.8725C65.7708 46.5242 63.6992 51.0208 59.5456 53.352L58.5046 53.8596L40.2287 62.8736L39.3034 63.3191L38.5147 63.7128C38.7566 63.5781 38.9879 63.433 39.2192 63.2776C39.5768 63.0497 39.9133 62.7907 40.2287 62.5213C42.9312 60.2523 44.4139 56.7297 44.6873 51.943C44.7188 51.3939 44.7399 50.8239 44.7399 50.2333C44.7399 47.4256 44.3718 44.5866 43.6357 41.7166C43.2887 40.3594 42.8681 39.0022 42.3528 37.6242C41.3644 34.9926 40.092 32.3402 38.5147 29.6568C34.3611 22.601 29.3452 17.3999 23.4566 14.0533C23.3935 14.0119 23.3199 13.9808 23.2568 13.9394C17.9359 10.9555 13.3302 10.3131 9.43945 12.0123L29.4293 2.15913C33.5724 -0.172052 38.5988 0.335607 44.4875 3.69251C50.3762 7.03906 55.392 12.2402 59.5456 19.2959C63.6992 26.3516 65.7708 33.2105 65.7708 39.8725Z" fill="#00876A"/>
</svg>
