<svg xmlns="http://www.w3.org/2000/svg" width="18" height="18" fill="none" viewBox="0 0 18 18"><path stroke="currentColor" stroke-linecap="round" stroke-width="1.5" d="M6.75 11.25L11.25 6.75"/><path stroke="currentColor" stroke-linecap="round" stroke-linejoin="round" stroke-width="1.5" d="M8.625 4.125L9.75 3C10.7 2.05 12 1.5 13.5 1.5C15 1.5 16.3 2.05 17.25 3C18.2 3.95 18.75 5.25 18.75 6.75C18.75 8.25 18.2 9.55 17.25 10.5L16.125 11.625"/><path stroke="currentColor" stroke-linecap="round" stroke-linejoin="round" stroke-width="1.5" d="M9.375 13.875L8.25 15C7.3 15.95 6 16.5 4.5 16.5C3 16.5 1.7 15.95 0.75 15C-0.2 14.05 -0.75 12.75 -0.75 11.25C-0.75 9.75 -0.2 8.45 0.75 7.5L1.875 6.375"/></svg>