<svg viewBox="0 0 15 20" fill="none" xmlns="http://www.w3.org/2000/svg">
  <path
    d="M12.9199 5.90625C13.6582 7.02734 14.0273 8.27148 14.0273 9.63867C14.0273 11.5527 13.3301 13.207 11.9355 14.6016C10.5684 15.9688 8.92773 16.6523 7.01367 16.6523V19.2773L3.52734 15.75L7.01367 12.2637V14.8887C8.46289 14.8887 9.69336 14.3828 10.7051 13.3711C11.7441 12.332 12.2637 11.0879 12.2637 9.63867C12.2637 8.81836 12.0586 7.99805 11.6484 7.17773L12.9199 5.90625ZM7.01367 4.38867C5.56445 4.38867 4.32031 4.9082 3.28125 5.94727C2.26953 6.95898 1.76367 8.18945 1.76367 9.63867C1.76367 10.5137 1.96875 11.334 2.37891 12.0996L1.10742 13.3711C0.369141 12.25 0 11.0059 0 9.63867C0 7.72461 0.683594 6.08398 2.05078 4.7168C3.44531 3.32227 5.09961 2.625 7.01367 2.625V0L10.5 3.52734L7.01367 7.01367V4.38867Z"
    fill="currentColor"
  />
</svg>
