<svg width="22" height="22" viewBox="0 0 22 22" fill="none" xmlns="http://www.w3.org/2000/svg">
<path d="M19.7359 18.764L15.433 14.462C16.6801 12.9647 17.302 11.0443 17.1693 9.10013C17.0366 7.15601 16.1594 5.33789 14.7203 4.02401C13.2813 2.71012 11.391 2.00163 9.44288 2.0459C7.49473 2.09018 5.63865 2.88382 4.26074 4.26172C2.88284 5.63963 2.0892 7.49571 2.04493 9.44386C2.00065 11.392 2.70915 13.2822 4.02303 14.7213C5.33692 16.1604 7.15503 17.0375 9.09916 17.1703C11.0433 17.303 12.9637 16.6811 14.461 15.434L18.7631 19.7368C18.8269 19.8007 18.9028 19.8514 18.9862 19.886C19.0697 19.9205 19.1591 19.9383 19.2495 19.9383C19.3398 19.9383 19.4292 19.9205 19.5127 19.886C19.5962 19.8514 19.672 19.8007 19.7359 19.7368C19.7997 19.673 19.8504 19.5971 19.885 19.5137C19.9196 19.4302 19.9373 19.3408 19.9373 19.2504C19.9373 19.1601 19.9196 19.0707 19.885 18.9872C19.8504 18.9037 19.7997 18.8279 19.7359 18.764ZM3.43696 9.62544C3.43696 8.40167 3.79985 7.20538 4.47975 6.18785C5.15964 5.17032 6.12599 4.37725 7.25661 3.90894C8.38723 3.44062 9.63133 3.31809 10.8316 3.55683C12.0318 3.79558 13.1344 4.38488 13.9997 5.25022C14.865 6.11555 15.4543 7.21806 15.6931 8.41832C15.9318 9.61858 15.8093 10.8627 15.341 11.9933C14.8727 13.1239 14.0796 14.0903 13.0621 14.7702C12.0445 15.4501 10.8482 15.8129 9.62446 15.8129C7.984 15.8111 6.41124 15.1586 5.25125 13.9987C4.09126 12.8387 3.43878 11.2659 3.43696 9.62544Z" fill="#B1DFFB"/>
</svg>
