<svg xmlns="http://www.w3.org/2000/svg" width="18" height="18" fill="none" viewBox="0 0 18 18"><path fill="currentColor" d="M7.03161 2.53125C7.03161 2.14187 7.14708 1.76123 7.36341 1.43747C7.57974 1.11371 7.88721 0.861373 8.24696 0.712363C8.6067 0.563353 9.00255 0.524365 9.38445 0.60033C9.76635 0.676295 10.1171 0.8638 10.3925 1.13913C10.6678 1.41447 10.8553 1.76527 10.9313 2.14717C11.0072 2.52907 10.9683 2.92492 10.8193 3.28466C10.6702 3.6444 10.4179 3.95188 10.0941 4.16821C9.77038 4.38454 9.38975 4.5 9.00036 4.5C8.47822 4.5 7.97746 4.29258 7.60825 3.92337C7.23904 3.55415 7.03161 3.0534 7.03161 2.53125ZM15.1471 9.89859L11.9654 6.29156C11.7807 6.08207 11.5535 5.91429 11.2989 5.79937C11.0443 5.68444 10.7682 5.625 10.4889 5.625H7.51185C7.23253 5.625 6.95641 5.68444 6.70183 5.79937C6.44725 5.91429 6.22004 6.08207 6.03529 6.29156L2.85365 9.89859C2.64705 10.11 2.53194 10.3942 2.53321 10.6898C2.53448 10.9853 2.65202 11.2685 2.86043 11.4781C3.06883 11.6877 3.35135 11.8069 3.64691 11.8099C3.94247 11.8128 4.22733 11.6994 4.4399 11.494L6.25818 10.0336L4.87302 15.2986C4.75251 15.5691 4.74354 15.8763 4.84806 16.1534C4.95258 16.4305 5.16215 16.6552 5.43131 16.7788C5.70046 16.9023 6.00749 16.9148 6.28576 16.8134C6.56403 16.712 6.79111 16.505 6.91771 16.2373L9.00036 12.6563L11.0802 16.2422C11.2068 16.5099 11.4339 16.7169 11.7122 16.8183C11.9904 16.9197 12.2975 16.9073 12.5666 16.7837C12.8358 16.6601 13.0453 16.4354 13.1499 16.1583C13.2544 15.8812 13.2454 15.5741 13.1249 15.3035L11.7426 10.0336L13.5636 11.494C13.7762 11.6994 14.0611 11.8128 14.3566 11.8099C14.6522 11.8069 14.9347 11.6877 15.1431 11.4781C15.3515 11.2685 15.4691 10.9853 15.4703 10.6898C15.4716 10.3942 15.3565 10.11 15.1499 9.89859H15.1471Z"/></svg>