<svg xmlns="http://www.w3.org/2000/svg" width="18" height="18" fill="none" viewBox="0 0 18 18"><path fill="currentColor" d="M15.2879 13.6792L12.9542 2.58387C12.924 2.43878 12.8655 2.30108 12.7819 2.17868C12.6984 2.05628 12.5914 1.9516 12.4673 1.87065C12.3432 1.78969 12.2043 1.73407 12.0585 1.70696C11.9128 1.67986 11.7632 1.68181 11.6183 1.7127L8.32695 2.42005C8.03582 2.48379 7.78164 2.65991 7.61968 2.91009C7.45772 3.16026 7.40109 3.46427 7.46211 3.75598L9.79578 14.8513C9.84779 15.1044 9.98536 15.332 10.1854 15.4956C10.3854 15.6592 10.6356 15.749 10.8941 15.7499C10.9739 15.7498 11.0536 15.7413 11.1317 15.7246L14.423 15.0172C14.7145 14.9533 14.969 14.7769 15.1309 14.5263C15.2929 14.2757 15.3493 13.9712 15.2879 13.6792ZM8.5625 3.52606C8.5625 3.52184 8.5625 3.51973 8.5625 3.51973L11.8531 2.81661L12.0873 3.93247L8.79664 4.64052L8.5625 3.52606ZM9.26562 6.85747L9.03008 5.7395L12.3221 5.03216L12.557 6.15013L9.26562 6.85747ZM14.1875 13.9175L10.8969 14.6207L10.6627 13.5048L13.9534 12.7968L14.1875 13.9112C14.1875 13.9154 14.1875 13.9175 14.1875 13.9175ZM6.3125 2.24989H2.9375C2.63913 2.24989 2.35298 2.36842 2.142 2.5794C1.93103 2.79037 1.8125 3.07652 1.8125 3.37489V14.6249C1.8125 14.9233 1.93103 15.2094 2.142 15.4204C2.35298 15.6314 2.63913 15.7499 2.9375 15.7499H6.3125C6.61087 15.7499 6.89702 15.6314 7.108 15.4204C7.31897 15.2094 7.4375 14.9233 7.4375 14.6249V3.37489C7.4375 3.07652 7.31897 2.79037 7.108 2.5794C6.89702 2.36842 6.61087 2.24989 6.3125 2.24989ZM2.9375 3.37489H6.3125V4.49989H2.9375V3.37489ZM6.3125 14.6249H2.9375V13.4999H6.3125V14.6249Z"/></svg>