<svg width="18" height="18" viewBox="0 0 18 18" fill="none" xmlns="http://www.w3.org/2000/svg">
  <path
    d="M12.0942 16.0313C12.0942 16.255 12.0053 16.4697 11.8471 16.6279C11.6888 16.7861 11.4742 16.875 11.2504 16.875H6.75044C6.52666 16.875 6.31205 16.7861 6.15382 16.6279C5.99558 16.4697 5.90669 16.255 5.90669 16.0313C5.90669 15.8075 5.99558 15.5929 6.15382 15.4346C6.31205 15.2764 6.52666 15.1875 6.75044 15.1875H11.2504C11.4742 15.1875 11.6888 15.2764 11.8471 15.4346C12.0053 15.5929 12.0942 15.8075 12.0942 16.0313ZM16.2384 4.11189C15.5834 2.83172 14.5996 1.7489 13.3879 0.97455C13.2943 0.911623 13.1889 0.868125 13.0781 0.846629C12.9674 0.825134 12.8534 0.826078 12.743 0.849406C12.6326 0.872734 12.528 0.917971 12.4354 0.982441C12.3428 1.04691 12.264 1.1293 12.2038 1.22474C12.1436 1.32018 12.1031 1.42673 12.0848 1.53808C12.0665 1.64943 12.0708 1.76332 12.0973 1.87301C12.1237 1.9827 12.172 2.08596 12.2391 2.17669C12.3062 2.26741 12.3908 2.34375 12.4879 2.40119C13.4478 3.01319 14.2251 3.87253 14.7379 4.88885C14.8094 5.0265 14.9174 5.14179 15.0502 5.22204C15.1829 5.3023 15.3352 5.34442 15.4903 5.34377C15.6252 5.34393 15.7581 5.31136 15.8777 5.24885C16.0762 5.14585 16.2258 4.96823 16.2934 4.75503C16.361 4.54184 16.3413 4.31051 16.2384 4.11189ZM3.26083 4.88885C3.7737 3.87253 4.55094 3.01319 5.51083 2.40119C5.61012 2.34496 5.69697 2.26918 5.76613 2.17843C5.8353 2.08768 5.88533 1.98384 5.91322 1.8732C5.94111 1.76256 5.94626 1.64741 5.92837 1.53472C5.91048 1.42202 5.86992 1.31413 5.80915 1.21756C5.74837 1.12099 5.66864 1.03775 5.57477 0.972882C5.4809 0.908009 5.37485 0.862848 5.26303 0.840132C5.15121 0.817416 5.03595 0.817616 4.92421 0.84072C4.81247 0.863824 4.70658 0.909351 4.61294 0.97455C3.40125 1.7489 2.41743 2.83172 1.76247 4.11189C1.65962 4.31051 1.63984 4.54184 1.70747 4.75503C1.77511 4.96823 1.92463 5.14585 2.12317 5.24885C2.24273 5.31136 2.37568 5.34393 2.51059 5.34377C2.66534 5.34403 2.81717 5.30173 2.94949 5.22149C3.08181 5.14126 3.18952 5.02618 3.26083 4.88885ZM15.4608 11.8041C15.6195 12.0124 15.7168 12.2609 15.7419 12.5216C15.767 12.7822 15.7188 13.0447 15.6027 13.2795C15.4867 13.5143 15.3074 13.7119 15.085 13.8503C14.8626 13.9886 14.6061 14.0621 14.3442 14.0625H3.65669C3.39463 14.0625 3.13778 13.9893 2.91511 13.8511C2.69245 13.7129 2.51282 13.5153 2.3965 13.2805C2.28019 13.0456 2.2318 12.783 2.2568 12.5221C2.28181 12.2612 2.37921 12.0125 2.53802 11.8041C3.04216 11.1481 3.64403 9.93236 3.65458 7.8708C3.65514 6.45327 4.21879 5.09402 5.22153 4.09207C6.22427 3.09012 7.58396 2.52755 9.00149 2.5281C10.419 2.52866 11.7783 3.09231 12.7802 4.09505C13.7822 5.09779 14.3447 6.45749 14.3442 7.87502C14.3547 9.93236 14.9566 11.1481 15.4608 11.8041ZM13.8056 12.375C13.2318 11.461 12.6672 10.0146 12.6567 7.87924C12.657 7.39909 12.5627 6.92359 12.3792 6.47989C12.1957 6.03619 11.9266 5.63297 11.5873 5.29326C11.248 4.95355 10.8451 4.684 10.4016 4.5C9.95808 4.316 9.48269 4.22115 9.00255 4.22088C8.5224 4.2206 8.0469 4.3149 7.6032 4.49839C7.1595 4.68187 6.75628 4.95096 6.41657 5.29028C6.07686 5.6296 5.80731 6.0325 5.62331 6.47599C5.43931 6.91948 5.34446 7.39487 5.34419 7.87502C5.33364 10.0139 4.76903 11.461 4.19528 12.375H13.8056Z"
    fill="currentColor"
  />
</svg>
