<svg xmlns="http://www.w3.org/2000/svg" width="18" height="18" fill="none" viewBox="0 0 18 18"><path fill="currentColor" d="M16.3125 8.43746V8.99996C16.3125 9.96244 16.1225 10.9155 15.7534 11.8044C15.3843 12.6932 14.8433 13.5005 14.1615 14.1799C13.4797 14.8593 12.6705 15.3974 11.7803 15.7633C10.8901 16.1293 9.93646 16.3159 8.97398 16.3125C5.17711 16.2991 2.08336 13.3551 1.72336 9.64824C1.71946 9.59995 1.72809 9.55148 1.74843 9.50751C1.76877 9.46354 1.80012 9.42557 1.83945 9.39727C1.87877 9.36898 1.92474 9.35133 1.97289 9.34602C2.02105 9.34072 2.06975 9.34794 2.1143 9.36699C2.62023 9.57938 3.18155 9.62132 3.71343 9.48648C4.24531 9.35164 4.71886 9.04734 5.0625 8.61957C5.28766 8.89958 5.56998 9.12833 5.8906 9.29054C6.21122 9.45274 6.56276 9.54467 6.92174 9.56017C7.28072 9.57568 7.63887 9.51441 7.97228 9.38046C8.3057 9.24651 8.60669 9.04295 8.85516 8.7834C9.08286 9.15333 9.39245 9.46605 9.76008 9.69746C9.34875 10.0122 9.01547 10.4174 8.7861 10.8818C8.55673 11.3461 8.43744 11.8571 8.4375 12.375C8.43723 12.453 8.45318 12.5302 8.48435 12.6017C8.51551 12.6732 8.56121 12.7374 8.61854 12.7903C8.67587 12.8432 8.74358 12.8836 8.81736 12.909C8.89114 12.9343 8.96938 12.944 9.04711 12.9375C9.18986 12.9221 9.32175 12.8541 9.41705 12.7467C9.51234 12.6393 9.5642 12.5002 9.5625 12.3567C9.56732 11.7631 9.8065 11.1955 10.2279 10.7775C10.6494 10.3595 11.2189 10.1249 11.8125 10.125C11.8896 10.1251 11.9659 10.1094 12.0367 10.0789C12.1075 10.0483 12.1713 10.0035 12.224 9.94726C12.2768 9.89101 12.3174 9.82452 12.3434 9.75192C12.3693 9.67931 12.3801 9.60214 12.375 9.5252C12.3624 9.38061 12.2956 9.24613 12.1881 9.14872C12.0805 9.05131 11.94 8.99817 11.7949 8.99996H11.25C10.8024 8.99996 10.3732 8.82217 10.0568 8.5057C9.74029 8.18924 9.5625 7.76001 9.5625 7.31246V6.18746H14.0625C14.6592 6.18746 15.2315 6.42451 15.6535 6.84647C16.0754 7.26843 16.3125 7.84072 16.3125 8.43746ZM3.14508 8.43746C3.90727 8.40934 4.5 7.76035 4.5 6.99746V5.38027C4.5 4.61457 3.90727 3.96559 3.14508 3.93746C2.95613 3.93056 2.76774 3.96183 2.59115 4.02941C2.41457 4.09698 2.25343 4.19947 2.11736 4.33075C1.98129 4.46202 1.87309 4.61939 1.79924 4.79344C1.72538 4.96748 1.68737 5.15464 1.6875 5.34371V7.03121C1.68737 7.22028 1.72538 7.40744 1.79924 7.58148C1.87309 7.75553 1.98129 7.9129 2.11736 8.04418C2.25343 8.17545 2.41457 8.27794 2.59115 8.34552C2.76774 8.41309 2.95613 8.44436 3.14508 8.43746ZM7.08258 8.43746C7.84477 8.41004 8.4375 7.76105 8.4375 6.99816V3.69348C8.4375 2.93059 7.84477 2.2816 7.08258 2.25418C6.89399 2.24729 6.70594 2.27843 6.52964 2.34575C6.35334 2.41306 6.19239 2.51517 6.05638 2.646C5.92037 2.77682 5.81208 2.93369 5.73797 3.10724C5.66386 3.2808 5.62544 3.46749 5.625 3.65621V7.03121C5.62487 7.22028 5.66288 7.40744 5.73674 7.58148C5.81059 7.75553 5.91879 7.9129 6.05486 8.04418C6.19093 8.17545 6.35207 8.27794 6.52865 8.34552C6.70524 8.41309 6.89363 8.44436 7.08258 8.43746ZM12.375 3.65621C12.3751 3.46714 12.3371 3.27998 12.2633 3.10594C12.1894 2.93189 12.0812 2.77452 11.9451 2.64325C11.8091 2.51197 11.6479 2.40948 11.4713 2.34191C11.2948 2.27433 11.1064 2.24306 10.9174 2.24996C10.1552 2.27809 9.5625 2.92707 9.5625 3.68996V5.06246H12.0938C12.1683 5.06246 12.2399 5.03283 12.2926 4.98008C12.3454 4.92734 12.375 4.8558 12.375 4.78121V3.65621Z"/></svg>