<svg xmlns="http://www.w3.org/2000/svg" width="18" height="18" fill="none" viewBox="0 0 18 18"><path fill="currentColor" d="M16.3125 8.43844V9.00094C16.3125 9.96342 16.1225 10.9164 15.7534 11.8053C15.3843 12.6942 14.8433 13.5015 14.1615 14.1809C13.4797 14.8602 12.6705 15.3983 11.7803 15.7643C10.8901 16.1302 9.93646 16.3169 8.97398 16.3134C5.17711 16.3001 2.08336 13.3561 1.72336 9.64922C1.71946 9.60093 1.72809 9.55245 1.74843 9.50848C1.76877 9.46451 1.80012 9.42654 1.83945 9.39825C1.87877 9.36996 1.92474 9.35231 1.97289 9.347C2.02105 9.34169 2.06975 9.34892 2.1143 9.36797C2.62023 9.58036 3.18155 9.6223 3.71343 9.48746C4.24531 9.35262 4.71886 9.04832 5.0625 8.62055C5.28766 8.90056 5.56998 9.12931 5.8906 9.29151C6.21122 9.45372 6.56276 9.54564 6.92174 9.56115C7.28072 9.57666 7.63887 9.51539 7.97228 9.38143C8.3057 9.24748 8.60669 9.04393 8.85516 8.78437C9.08286 9.15431 9.39245 9.46703 9.76008 9.69844C9.34875 10.0131 9.01547 10.4184 8.7861 10.8827C8.55673 11.3471 8.43744 11.858 8.4375 12.3759C8.43723 12.4539 8.45318 12.5312 8.48435 12.6027C8.51551 12.6742 8.56121 12.7384 8.61854 12.7913C8.67587 12.8442 8.74358 12.8846 8.81736 12.9099C8.89114 12.9353 8.96938 12.945 9.04711 12.9384C9.18986 12.9231 9.32175 12.855 9.41705 12.7477C9.51234 12.6403 9.5642 12.5012 9.5625 12.3577C9.56732 11.7641 9.8065 11.1965 10.2279 10.7785C10.6494 10.3605 11.2189 10.1259 11.8125 10.1259C11.8896 10.1261 11.9659 10.1104 12.0367 10.0798C12.1075 10.0493 12.1713 10.0045 12.224 9.94824C12.2768 9.89199 12.3174 9.8255 12.3434 9.75289C12.3693 9.68029 12.3801 9.60311 12.375 9.52617C12.3624 9.38159 12.2956 9.24711 12.1881 9.1497C12.0805 9.05229 11.94 8.99915 11.7949 9.00094H11.25C10.8024 9.00094 10.3732 8.82315 10.0568 8.50668C9.74029 8.19021 9.5625 7.76099 9.5625 7.31344V6.18844H14.0625C14.6592 6.18844 15.2315 6.42549 15.6535 6.84745C16.0754 7.2694 16.3125 7.8417 16.3125 8.43844ZM3.14508 8.43844C3.90727 8.41031 4.5 7.76133 4.5 6.99844V5.38125C4.5 4.61555 3.90727 3.96656 3.14508 3.93844C2.95613 3.93154 2.76774 3.96281 2.59115 4.03038C2.41457 4.09796 2.25343 4.20045 2.11736 4.33172C1.98129 4.463 1.87309 4.62037 1.79924 4.79441C1.72538 4.96846 1.68737 5.15562 1.6875 5.34469V7.03219C1.68737 7.22126 1.72538 7.40841 1.79924 7.58246C1.87309 7.75651 1.98129 7.91388 2.11736 8.04515C2.25343 8.17643 2.41457 8.27892 2.59115 8.34649C2.76774 8.41407 2.95613 8.44534 3.14508 8.43844ZM7.08258 8.43844C7.84477 8.41102 8.4375 7.76203 8.4375 6.99914V3.69445C8.4375 2.93156 7.84477 2.28258 7.08258 2.25516C6.89399 2.24827 6.70594 2.27941 6.52964 2.34672C6.35334 2.41404 6.19239 2.51615 6.05638 2.64698C5.92037 2.7778 5.81208 2.93466 5.73797 3.10822C5.66386 3.28177 5.62544 3.46847 5.625 3.65719V7.03219C5.62487 7.22126 5.66288 7.40841 5.73674 7.58246C5.81059 7.75651 5.91879 7.91388 6.05486 8.04515C6.19093 8.17643 6.35207 8.27892 6.52865 8.34649C6.70524 8.41407 6.89363 8.44534 7.08258 8.43844ZM12.375 3.65719C12.3751 3.46812 12.3371 3.28096 12.2633 3.10691C12.1894 2.93286 12.0812 2.7755 11.9451 2.64422C11.8091 2.51295 11.6479 2.41046 11.4713 2.34288C11.2948 2.27531 11.1064 2.24404 10.9174 2.25094C10.1552 2.27906 9.5625 2.92805 9.5625 3.69094V5.06344H12.0938C12.1683 5.06344 12.2399 5.03381 12.2926 4.98106C12.3454 4.92832 12.375 4.85678 12.375 4.78219V3.65719Z"/></svg>