<svg xmlns="http://www.w3.org/2000/svg" width="24" height="24" fill="none" viewBox="0 0 24 24"><path fill="#000" d="M21 10.5C21 12.6159 20.2594 14.55 18.9159 15.9478C17.6616 17.25 15.9609 18 14.25 18C12.5738 18 11.4544 17.4506 10.7409 16.875L9.73031 21.1706C9.69181 21.3354 9.5987 21.4824 9.46611 21.5876C9.33352 21.6927 9.16925 21.75 9 21.75C8.94194 21.7499 8.88408 21.7433 8.8275 21.7303C8.73124 21.7082 8.6403 21.6673 8.55988 21.61C8.47947 21.5527 8.41117 21.48 8.3589 21.3962C8.30664 21.3124 8.27144 21.2191 8.25533 21.1217C8.23921 21.0243 8.2425 20.9246 8.265 20.8284L11.265 8.07844C11.3105 7.88475 11.4311 7.71706 11.6002 7.61228C11.7694 7.50749 11.9732 7.47419 12.1669 7.51969C12.3606 7.56519 12.5282 7.68577 12.633 7.8549C12.7378 8.02404 12.7711 8.22787 12.7256 8.42156L11.1413 15.1528C11.4375 15.5625 12.3094 16.5 14.25 16.5C16.8309 16.5 19.5 14.2556 19.5 10.5C19.4996 9.46487 19.2611 8.4437 18.803 7.51546C18.345 6.58721 17.6795 5.77675 16.8582 5.14675C16.0368 4.51676 15.0816 4.0841 14.0664 3.88223C13.0511 3.68036 12.003 3.71469 11.0032 3.98258C10.0033 4.25046 9.07844 4.74471 8.3001 5.42711C7.52176 6.10951 6.91079 6.96178 6.51443 7.91802C6.11808 8.87426 5.94696 9.90884 6.0143 10.9418C6.08165 11.9747 6.38565 12.9783 6.90281 13.875C6.9961 14.0468 7.01862 14.2482 6.96558 14.4364C6.91254 14.6245 6.78813 14.7846 6.61885 14.8823C6.44956 14.9801 6.24879 15.0079 6.0593 14.9599C5.86981 14.9118 5.70658 14.7916 5.60438 14.625C4.97197 13.5291 4.60011 12.3024 4.51757 11.0398C4.43503 9.77715 4.64402 8.51247 5.12837 7.34354C5.61272 6.17461 6.35945 5.13275 7.31081 4.29854C8.26217 3.46433 9.39267 2.86013 10.6149 2.53267C11.8371 2.2052 13.1182 2.16324 14.3592 2.41005C15.6002 2.65685 16.7678 3.1858 17.7717 3.95597C18.7756 4.72615 19.5889 5.71693 20.1487 6.85166C20.7085 7.9864 20.9998 9.2347 21 10.5Z"/></svg>