<svg xmlns="http://www.w3.org/2000/svg" width="18" height="18" fill="none" viewBox="0 0 18 18"><path fill="currentColor" d="M11.8125 15.75C11.8125 15.8992 11.7532 16.0423 11.6477 16.1477C11.5423 16.2532 11.3992 16.3125 11.25 16.3125H6.75C6.60082 16.3125 6.45774 16.2532 6.35225 16.1477C6.24676 16.0423 6.1875 15.8992 6.1875 15.75C6.1875 15.6008 6.24676 15.4577 6.35225 15.3523C6.45774 15.2468 6.60082 15.1875 6.75 15.1875H11.25C11.3992 15.1875 11.5423 15.2468 11.6477 15.3523C11.7532 15.4577 11.8125 15.6008 11.8125 15.75ZM16.3125 4.5V12.375C16.3125 12.8226 16.1347 13.2518 15.8182 13.5682C15.5018 13.8847 15.0726 14.0625 14.625 14.0625H3.375C2.92745 14.0625 2.49822 13.8847 2.18176 13.5682C1.86529 13.2518 1.6875 12.8226 1.6875 12.375V4.5C1.6875 4.05245 1.86529 3.62322 2.18176 3.30676C2.49822 2.99029 2.92745 2.8125 3.375 2.8125H14.625C15.0726 2.8125 15.5018 2.99029 15.8182 3.30676C16.1347 3.62322 16.3125 4.05245 16.3125 4.5ZM11.5312 8.4375C11.5312 8.34712 11.5094 8.25807 11.4677 8.17791C11.4259 8.09774 11.3655 8.02881 11.2915 7.97695L8.47898 6.0082C8.39471 5.94916 8.29585 5.91437 8.19317 5.90762C8.09049 5.90087 7.98792 5.92241 7.89664 5.9699C7.80535 6.01739 7.72884 6.08901 7.67544 6.17697C7.62203 6.26493 7.59378 6.36585 7.59375 6.46875V10.4062C7.59378 10.5092 7.62203 10.6101 7.67544 10.698C7.72884 10.786 7.80535 10.8576 7.89664 10.9051C7.98792 10.9526 8.09049 10.9741 8.19317 10.9674C8.29585 10.9606 8.39471 10.9258 8.47898 10.8668L11.2915 8.89805C11.3655 8.84619 11.4259 8.77726 11.4677 8.69709C11.5094 8.61693 11.5312 8.52788 11.5312 8.4375Z"/></svg>