<svg xmlns="http://www.w3.org/2000/svg" width="24" height="24" fill="none" viewBox="0 0 24 24"><g clip-path="url(#clip0_1715_8239)"><path fill="#000" d="M23.2502 9.75C23.2501 9.17511 23.0848 8.61237 22.7739 8.12874C22.4631 7.64512 22.0199 7.26098 21.497 7.02206C20.9741 6.78313 20.3936 6.69948 19.8245 6.78105C19.2554 6.86263 18.7218 7.10599 18.2871 7.48219C16.7168 6.64781 14.8408 6.14344 12.8815 6.02625L13.368 3.10406L15.0293 3.35906C15.1135 3.8831 15.3804 4.36046 15.7826 4.70679C16.1848 5.05312 16.6965 5.24611 17.2272 5.25165C17.758 5.2572 18.2736 5.07493 18.6829 4.73708C19.0923 4.39923 19.369 3.92754 19.4642 3.40538C19.5594 2.88322 19.467 2.34422 19.2032 1.88363C18.9394 1.42304 18.5213 1.07053 18.0228 0.888395C17.5243 0.706262 16.9774 0.706235 16.4788 0.88832C15.9803 1.0704 15.5621 1.42288 15.2983 1.88344L12.8608 1.50844C12.6658 1.47837 12.4668 1.52636 12.307 1.642C12.1471 1.75765 12.0392 1.93163 12.0068 2.12625L11.3627 6.015C9.3152 6.10313 7.34833 6.61313 5.71333 7.48219C5.11624 6.97778 4.34586 6.72633 3.56617 6.78135C2.78649 6.83637 2.05906 7.19352 1.53872 7.77677C1.01838 8.36003 0.746224 9.12334 0.780178 9.90423C0.814132 10.6851 1.15151 11.4219 1.72051 11.9578C1.57469 12.4589 1.50052 12.9781 1.5002 13.5C1.5002 15.5559 2.6252 17.4703 4.67926 18.8897C6.6452 20.25 9.24489 21 12.0002 21C14.7555 21 17.3552 20.25 19.3211 18.8897C21.3752 17.4703 22.5002 15.5559 22.5002 13.5C22.4999 12.9781 22.4257 12.4589 22.2799 11.9578C22.5849 11.6764 22.8284 11.335 22.9954 10.9551C23.1624 10.5752 23.2491 10.165 23.2502 9.75ZM17.2502 2.25C17.3985 2.25 17.5435 2.29399 17.6669 2.3764C17.7902 2.45881 17.8863 2.57594 17.9431 2.71299C17.9999 2.85003 18.0147 3.00083 17.9858 3.14632C17.9569 3.2918 17.8854 3.42544 17.7805 3.53033C17.6756 3.63522 17.542 3.70665 17.3965 3.73559C17.251 3.76453 17.1002 3.74968 16.9632 3.69291C16.8261 3.63615 16.709 3.54002 16.6266 3.41668C16.5442 3.29334 16.5002 3.14834 16.5002 3C16.5002 2.80109 16.5792 2.61032 16.7199 2.46967C16.8605 2.32902 17.0513 2.25 17.2502 2.25ZM21.0124 11.0419C20.8563 11.1344 20.739 11.2804 20.6822 11.4527C20.6255 11.6251 20.6332 11.8122 20.704 11.9794C20.8988 12.4627 20.9993 12.9789 21.0002 13.5C21.0002 15.0497 20.1011 16.5253 18.469 17.6559C16.7505 18.8438 14.4536 19.5 12.0002 19.5C9.54677 19.5 7.24989 18.8438 5.53145 17.6559C3.89926 16.5253 3.0002 15.0497 3.0002 13.5C3.00146 12.9806 3.10135 12.4662 3.29458 11.9841C3.36545 11.8171 3.37345 11.6302 3.31709 11.4578C3.26073 11.2855 3.14382 11.1394 2.98801 11.0466C2.79724 10.9328 2.6341 10.7781 2.51038 10.5937C2.38667 10.4092 2.30546 10.1996 2.27263 9.97989C2.2398 9.76022 2.25616 9.53599 2.32054 9.32342C2.38491 9.11084 2.49569 8.91521 2.64488 8.75066C2.79407 8.58611 2.97793 8.45674 3.18321 8.3719C3.38848 8.28706 3.61003 8.24887 3.83185 8.26008C4.05368 8.27129 4.27025 8.33162 4.46593 8.43672C4.6616 8.54182 4.83149 8.68906 4.96333 8.86781C5.07214 9.01729 5.23233 9.1213 5.41315 9.15989C5.59397 9.19847 5.78266 9.16891 5.94301 9.07688L5.97676 9.05625C7.63614 8.05313 9.77364 7.5 12.0002 7.5C14.2249 7.5 16.3624 8.05313 18.0218 9.05625L18.0611 9.07969C18.2213 9.16983 18.4089 9.19805 18.5885 9.15899C18.768 9.11994 18.927 9.01632 19.0352 8.86781C19.1662 8.68757 19.3358 8.53879 19.5315 8.43229C19.7273 8.32579 19.9443 8.26423 20.1668 8.25211C20.3893 8.23998 20.6117 8.27758 20.8179 8.36218C21.0241 8.44678 21.2088 8.57625 21.3586 8.74118C21.5085 8.90611 21.6197 9.10236 21.6842 9.31567C21.7487 9.52897 21.7649 9.75396 21.7316 9.97429C21.6982 10.1946 21.6162 10.4048 21.4915 10.5894C21.3668 10.7741 21.2025 10.9287 21.0105 11.0419H21.0124ZM8.2502 13.5C7.95353 13.5 7.66352 13.412 7.41685 13.2472C7.17017 13.0824 6.97791 12.8481 6.86438 12.574C6.75085 12.2999 6.72115 11.9983 6.77902 11.7074C6.8369 11.4164 6.97976 11.1491 7.18954 10.9393C7.39932 10.7296 7.6666 10.5867 7.95757 10.5288C8.24854 10.4709 8.55014 10.5007 8.82423 10.6142C9.09832 10.7277 9.33258 10.92 9.49741 11.1666C9.66223 11.4133 9.7502 11.7033 9.7502 12C9.7502 12.3978 9.59217 12.7794 9.31086 13.0607C9.02956 13.342 8.64803 13.5 8.2502 13.5ZM17.2502 12C17.2502 12.2967 17.1622 12.5867 16.9974 12.8334C16.8326 13.08 16.5983 13.2723 16.3242 13.3858C16.0501 13.4994 15.7485 13.5291 15.4576 13.4712C15.1666 13.4133 14.8993 13.2704 14.6895 13.0607C14.4798 12.8509 14.3369 12.5836 14.279 12.2926C14.2211 12.0017 14.2509 11.7001 14.3644 11.426C14.4779 11.1519 14.6702 10.9176 14.9168 10.7528C15.1635 10.588 15.4535 10.5 15.7502 10.5C16.148 10.5 16.5296 10.658 16.8109 10.9393C17.0922 11.2206 17.2502 11.6022 17.2502 12ZM15.663 16.1484C15.7092 16.2355 15.7378 16.3308 15.7472 16.4288C15.7565 16.5269 15.7465 16.6259 15.7176 16.7201C15.6887 16.8143 15.6415 16.9019 15.5787 16.9779C15.516 17.0538 15.4388 17.1167 15.3518 17.1628C14.3197 17.7113 13.1689 17.9981 12.0002 17.9981C10.8315 17.9981 9.68066 17.7113 8.64864 17.1628C8.5616 17.1166 8.4845 17.0538 8.42175 16.9778C8.35901 16.9019 8.31183 16.8143 8.28293 16.7201C8.25403 16.6259 8.24396 16.5269 8.25331 16.4288C8.26265 16.3308 8.29122 16.2355 8.33739 16.1484C8.38356 16.0614 8.44642 15.9843 8.52238 15.9216C8.59834 15.8588 8.68592 15.8116 8.78012 15.7827C8.87431 15.7538 8.97327 15.7438 9.07136 15.7531C9.16944 15.7624 9.26472 15.791 9.35177 15.8372C10.1672 16.2707 11.0767 16.4974 12.0002 16.4974C12.9237 16.4974 13.8332 16.2707 14.6486 15.8372C14.7357 15.791 14.831 15.7624 14.9291 15.753C15.0271 15.7437 15.1261 15.7537 15.2203 15.7826C15.3145 15.8115 15.4021 15.8587 15.4781 15.9215C15.554 15.9842 15.6169 16.0614 15.663 16.1484Z"/></g><defs><clipPath id="clip0_1715_8239"><rect width="24" height="24" fill="#fff"/></clipPath></defs></svg>