<svg xmlns="http://www.w3.org/2000/svg" width="18" height="18" fill="none" viewBox="0 0 18 18"><path stroke="currentColor" stroke-linecap="round" stroke-linejoin="round" stroke-width="1.5" d="M12.375 6.1875L5.625 9.5625M5.625 8.4375L12.375 11.8125"/><path stroke="currentColor" stroke-width="1.5" d="M14.0625 6.75C15.3051 6.75 16.3125 5.74264 16.3125 4.5C16.3125 3.25736 15.3051 2.25 14.0625 2.25C12.8199 2.25 11.8125 3.25736 11.8125 4.5C11.8125 5.74264 12.8199 6.75 14.0625 6.75Z"/><path stroke="currentColor" stroke-width="1.5" d="M3.9375 11.25C5.18014 11.25 6.1875 10.2426 6.1875 9C6.1875 7.75736 5.18014 6.75 3.9375 6.75C2.69486 6.75 1.6875 7.75736 1.6875 9C1.6875 10.2426 2.69486 11.25 3.9375 11.25Z"/><path stroke="currentColor" stroke-width="1.5" d="M14.0625 15.75C15.3051 15.75 16.3125 14.7426 16.3125 13.5C16.3125 12.2574 15.3051 11.25 14.0625 11.25C12.8199 11.25 11.8125 12.2574 11.8125 13.5C11.8125 14.7426 12.8199 15.75 14.0625 15.75Z"/></svg>