<svg width="58" height="58" viewBox="0 0 58 58" fill="none" xmlns="http://www.w3.org/2000/svg">
<path d="M38.0625 50.75C38.0625 51.2307 37.8715 51.6917 37.5316 52.0316C37.1917 52.3715 36.7307 52.5625 36.25 52.5625H21.75C21.2693 52.5625 20.8083 52.3715 20.4684 52.0316C20.1285 51.6917 19.9375 51.2307 19.9375 50.75C19.9375 50.2693 20.1285 49.8083 20.4684 49.4684C20.8083 49.1285 21.2693 48.9375 21.75 48.9375H36.25C36.7307 48.9375 37.1917 49.1285 37.5316 49.4684C37.8715 49.8083 38.0625 50.2693 38.0625 50.75ZM52.5625 14.5V39.875C52.5625 41.3171 51.9896 42.7002 50.9699 43.7199C49.9502 44.7396 48.5671 45.3125 47.125 45.3125H10.875C9.43289 45.3125 8.04984 44.7396 7.03011 43.7199C6.01038 42.7002 5.4375 41.3171 5.4375 39.875V14.5C5.4375 13.0579 6.01038 11.6748 7.03011 10.6551C8.04984 9.63538 9.43289 9.0625 10.875 9.0625H47.125C48.5671 9.0625 49.9502 9.63538 50.9699 10.6551C51.9896 11.6748 52.5625 13.0579 52.5625 14.5ZM35.7198 24.0927L30.2823 18.6552C30.114 18.4866 29.9141 18.3529 29.6941 18.2617C29.474 18.1705 29.2382 18.1236 29 18.1236C28.7618 18.1236 28.526 18.1705 28.3059 18.2617C28.0859 18.3529 27.886 18.4866 27.7177 18.6552L22.2802 24.0927C21.9401 24.4328 21.749 24.894 21.749 25.375C21.749 25.856 21.9401 26.3172 22.2802 26.6573C22.6203 26.9974 23.0815 27.1885 23.5625 27.1885C24.0435 27.1885 24.5047 26.9974 24.8448 26.6573L27.1875 24.3124V34.4375C27.1875 34.9182 27.3785 35.3792 27.7184 35.7191C28.0583 36.059 28.5193 36.25 29 36.25C29.4807 36.25 29.9417 36.059 30.2816 35.7191C30.6215 35.3792 30.8125 34.9182 30.8125 34.4375V24.3124L33.1552 26.6573C33.3236 26.8257 33.5235 26.9593 33.7435 27.0505C33.9635 27.1416 34.1993 27.1885 34.4375 27.1885C34.6757 27.1885 34.9115 27.1416 35.1315 27.0505C35.3515 26.9593 35.5514 26.8257 35.7198 26.6573C35.8882 26.4889 36.0218 26.289 36.113 26.069C36.2041 25.849 36.251 25.6132 36.251 25.375C36.251 25.1368 36.2041 24.901 36.113 24.681C36.0218 24.461 35.8882 24.2611 35.7198 24.0927Z" fill="currentColor"/>
</svg>
